<svg xmlns="http://www.w3.org/2000/svg" width="24" height="22" fill="none" viewBox="0 0 24 22">
  <path fill="#004359" d="M9.038 0a2.225 2.225 0 0 0-1.979 1.211l-.871 1.722H3.692c-.98 0-1.918.387-2.61 1.074A3.654 3.654 0 0 0 0 6.6v11.733c0 .973.389 1.905 1.081 2.593A3.705 3.705 0 0 0 3.692 22h16.245c.98 0 1.919-.386 2.611-1.074a3.654 3.654 0 0 0 1.082-2.593V6.6c0-.972-.39-1.905-1.082-2.593a3.705 3.705 0 0 0-2.61-1.074h-2.496l-.863-1.716a2.205 2.205 0 0 0-.817-.888A2.227 2.227 0 0 0 14.597 0H9.038Zm-.66 1.87a.735.735 0 0 1 .66-.403h5.56a.742.742 0 0 1 .66.404l1.067 2.123a.735.735 0 0 0 .662.405h2.952a2.22 2.22 0 0 1 1.566.644c.416.412.65.972.65 1.556v11.734c0 .584-.234 1.143-.65 1.556a2.223 2.223 0 0 1-1.566.644H3.694a2.223 2.223 0 0 1-1.567-.644 2.192 2.192 0 0 1-.649-1.556V6.6c0-.583.234-1.143.65-1.556A2.223 2.223 0 0 1 3.693 4.4h2.949a.742.742 0 0 0 .66-.405L8.378 1.87Z"/>
  <path fill="#004359" fill-rule="evenodd" d="M10.582 10.601a2.108 2.108 0 0 1 2.65.26 2.076 2.076 0 0 1-.681 3.397 2.111 2.111 0 0 1-2.287-.451 2.08 2.08 0 0 1-.454-2.27c.158-.382.427-.707.772-.936Zm.777 2.31a.702.702 0 0 0 .883-.087.692.692 0 0 0-.227-1.132.703.703 0 0 0-.762.15.692.692 0 0 0 .106 1.069Z" clip-rule="evenodd"/>
  <path fill="#004359" fill-rule="evenodd" d="M8.378 1.87a.735.735 0 0 1 .66-.403h5.56a.742.742 0 0 1 .66.404l1.067 2.123a.735.735 0 0 0 .662.405h2.952a2.22 2.22 0 0 1 1.566.644c.416.412.65.972.65 1.556v11.734c0 .584-.234 1.143-.65 1.556a2.223 2.223 0 0 1-1.566.644H3.694a2.223 2.223 0 0 1-1.567-.644 2.192 2.192 0 0 1-.649-1.556V6.6c0-.583.234-1.143.65-1.556A2.223 2.223 0 0 1 3.693 4.4h2.949a.742.742 0 0 0 .66-.405L8.378 1.87Zm8.915 9.769h.748a.7.7 0 0 1 .494.203.692.692 0 0 1-.494 1.186h-.748a5.54 5.54 0 0 1-1.594 3.23 5.609 5.609 0 0 1-3.252 1.582v.743a.693.693 0 0 1-.205.491.702.702 0 0 1-1.194-.49v-.744a5.61 5.61 0 0 1-3.251-1.583 5.54 5.54 0 0 1-1.595-3.23h-.748a.702.702 0 0 1-.494-.203.692.692 0 0 1 .494-1.185h.748a5.541 5.541 0 0 1 1.595-3.23 5.61 5.61 0 0 1 3.251-1.583v-.743a.69.69 0 0 1 .205-.49.702.702 0 0 1 1.194.49v.743a5.609 5.609 0 0 1 3.252 1.583 5.54 5.54 0 0 1 1.594 3.23Z" clip-rule="evenodd"/>
</svg>
