<svg xmlns="http://www.w3.org/2000/svg" width="184" height="173" fill="none" viewBox="0 0 184 173">
  <path fill="#EBEBEB" d="M160.886 128.553h11.069v-4.677h-11.069v4.677Zm6.174 5.898h11.069v-4.677H167.06v4.677Zm-12.352 0h11.069v-4.677h-11.069v4.677Zm-142.662 0h11.068v-4.677H12.046v4.677Zm0-126.218h11.068V3.556H12.046v4.677ZM5.872 14.13H16.94V9.454H5.872v4.678ZM167.06 8.237h11.069V3.56H167.06v4.677Zm-19.433 50.979h-11.068v4.678h11.068v-4.678Zm-6.174-5.898h-11.068v4.678h11.068v-4.678ZM16.146 15.71h73.45v102.577h-73.45V15.711Zm71.256 2.178H18.324v98.23h69.078v-98.23Z"/>
  <path fill="#EBEBEB" d="M53.958 18.461H51.78v98.735h2.178V18.461Z"/>
  <path fill="#EBEBEB" d="M14.169 23.151h77.405v-3.035H14.169v3.035Zm0 3.415h77.405v-3.034H14.169v3.034Zm0 3.415h77.405v-3.035H14.169v3.035Zm0 3.411h77.405v-3.035H14.169v3.035Zm0 3.419h77.405v-3.034H14.169v3.034Zm0 3.415h77.405v-3.034H14.169v3.034Zm0 3.411h77.405v-3.035H14.169v3.035Zm0 3.415h77.405v-3.034H14.169v3.034Zm0 3.415h77.405v-3.034H14.169v3.034Z"/>
  <path fill="#263238" d="M21.183 19.502h-.544v59.059h.544V19.502Z"/>
  <path fill="#263238" d="M19.946 81.098h1.935l-.485-2.78h-.966l-.484 2.78Zm-.724-61.596h-.543v73.956h.543V19.502Z"/>
  <path fill="#263238" d="M17.981 95.502h1.935l-.485-2.78h-.965l-.485 2.78Z"/>
  <path fill="#DBDBDB" d="M10.783 21.634h84.172v-6.35H10.783v6.35Z"/>
  <path fill="#EBEBEB" d="M165.657 44.42c7.417-4.508 9.776-14.175 5.267-21.593-4.508-7.418-14.176-9.776-21.593-5.268-7.418 4.508-9.776 14.176-5.268 21.594 4.508 7.417 14.176 9.776 21.594 5.268Z"/>
  <path fill="#DBDBDB" d="M166.925 43.57c6.746-4.806 8.318-14.171 3.512-20.917-4.807-6.746-14.172-8.318-20.917-3.512-6.746 4.807-8.318 14.172-3.512 20.918 4.806 6.746 14.171 8.318 20.917 3.511Z"/>
  <path fill="#fff" d="M166.379 42.795c6.317-4.505 7.787-13.278 3.282-19.595-4.504-6.318-13.277-7.787-19.595-3.283-6.317 4.505-7.787 13.278-3.282 19.595 4.504 6.318 13.277 7.788 19.595 3.283Z"/>
  <path fill="#EBEBEB" d="M171.951 28.372c-6.4 3.875-16.913 10.233-22.79 13.719a14.077 14.077 0 0 1-3.841-5.163l19.437-18.015a14.075 14.075 0 0 1 7.194 9.459Zm.304 3.469a13.805 13.805 0 0 1-.927 4.565l-17.523 8.293a13.63 13.63 0 0 1-2.211-.953c5.292-3.06 14.964-8.628 20.661-11.905Z" opacity=".5"/>
  <path fill="#C7C7C7" d="M158.353 18.323h-.272v2.128h.272v-2.128Zm-6.537 1.669-.235.135 1.064 1.843.235-.136-1.064-1.842Zm-4.821 4.724-.136.236 1.843 1.063.135-.235-1.842-1.064Zm.323 6.498h-2.128v.272h2.128v-.272Zm1.39 5.457-1.843 1.065.136.235 1.843-1.064-.136-.236Zm3.946 4.059-1.063 1.843.235.136 1.063-1.843-.235-.136Zm5.699 1.524h-.272v2.127h.272v-2.127Zm5.428-1.534-.235.135 1.064 1.843.235-.136-1.064-1.843Zm3.951-4.028-.136.235 1.842 1.064.136-.235-1.842-1.064Zm3.512-5.478h-2.128v.272h2.128v-.272Zm-1.81-6.491-1.842 1.065.136.235 1.842-1.065-.136-.235Zm-4.817-4.716-1.063 1.843.235.136 1.063-1.843-.235-.136Z"/>
  <path fill="#C7C7C7" d="m158.42 19.285.464 13.016-1.334-.017.51-13.003.36.004Z"/>
  <path fill="#A6A6A6" d="m166.529 26.813-8.757 5.588-.635-1.17 9.216-4.736.176.318Z"/>
  <path fill="#C7C7C7" d="M158.671 31.352a.457.457 0 0 1-.78.321.458.458 0 0 1 .649-.643.462.462 0 0 1 .131.322Z"/>
  <path fill="#263238" d="M173.564 114.701c-1.81-1.768-4.142-3.908-6.905-3.148-2.6.719-3.595 3.558-4.063 5.924-.598 3.047-1.066 6.123-1.551 9.195a707.191 707.191 0 0 0-1.392 9.305c-.251 1.75-.499 3.503-.744 5.259-.125.872-.248 1.748-.368 2.629-.117.836-.263 1.718-.309 2.583 0 .276.418.318.481.054.334-1.463.472-2.98.685-4.464.213-1.484.418-2.984.652-4.477.418-2.963.882-5.923 1.325-8.886.443-2.964.911-5.923 1.384-8.883.418-2.508.589-5.626 2.813-7.281 1.22-.907 2.78-.916 4.159-.389 1.467.56 2.633 1.605 3.762 2.642a.05.05 0 0 0 .032.016.055.055 0 0 0 .035-.012.05.05 0 0 0 .016-.033.047.047 0 0 0-.012-.034Z"/>
  <path fill="#DB3A34" d="M171.089 112.891s-3.695-1.329-5.517 1.367c-1.823 2.696.355 9.555 17.175 13.422a47.417 47.417 0 0 0-4.046-15.203c-3.607-7.862-10.032-4.886-7.612.414Z"/>
  <path fill="#263238" d="M181.782 126.56c-.251-.471-.53-.926-.836-1.363l-.836-1.296-.66-.965c0-.076.021-.159.033-.239 0-.146.038-.292.054-.439.042-.313.088-.627.134-.944.046-.318.101-.623.159-.937a4.94 4.94 0 0 1 .222-.99c.02-.05-.067-.075-.076 0a3.566 3.566 0 0 1-.15.556l-.113.418c-.079.317-.159.639-.23.961-.071.322-.121.594-.171.89-.025.147-.046.289-.067.418a76.926 76.926 0 0 0-.92-1.254 58.406 58.406 0 0 0-2.817-3.415v-.029c.088-1.768.046-3.519.418-5.258 0-.046-.059-.071-.071-.025-.368 1.634-.732 3.344-.627 5.016a73.683 73.683 0 0 0-1.066-1.167c-.836-.877-1.651-1.747-2.508-2.595-.033-.034-.088 0-.054.05a91.178 91.178 0 0 1 4.071 4.736 28.9 28.9 0 0 0-3.072.113c-1.141.083-2.274.229-3.407.384-.01 0-.02.004-.027.011a.039.039 0 0 0-.011.027c0 .01.004.019.011.026a.039.039 0 0 0 .027.011 33.14 33.14 0 0 1 3.402-.305c1.1-.046 2.191 0 3.286 0 .706.882 1.409 1.764 2.09 2.659h-.928c-.51 0-1.024.046-1.534.087a23.088 23.088 0 0 0-3.106.464.036.036 0 0 0-.026.011.04.04 0 0 0-.011.027c0 .01.004.02.011.027a.036.036 0 0 0 .026.011 40.89 40.89 0 0 1 3.11-.251h2.261a.938.938 0 0 0 .418-.038c.452.59.908 1.175 1.355 1.764.355.473.71.945 1.053 1.426.343.48.673 1.02 1.066 1.475a.065.065 0 0 0 .088.029.067.067 0 0 0 .033-.037.066.066 0 0 0-.004-.05Z"/>
  <path fill="#263238" d="M172.699 116.712a11.245 11.245 0 0 0-1.797-.084c-.602 0-1.204 0-1.802.038-.01 0-.02.004-.027.011a.036.036 0 0 0-.011.026c0 .01.004.02.011.027a.039.039 0 0 0 .027.011c.606-.046 1.216-.055 1.827-.046.61.008 1.178.063 1.764.05l.008-.033Zm5.279 1.358c.067-.577.142-1.154.263-1.718a.04.04 0 0 0-.011-.027.036.036 0 0 0-.026-.011c-.01 0-.02.004-.027.011a.04.04 0 0 0-.011.027c-.083.569-.196 1.129-.28 1.693-.042.279-.079.557-.113.836a3.998 3.998 0 0 0-.071.803c0 .05.088.054.1 0 .051-.264.08-.531.088-.799.025-.272.055-.543.088-.815Zm-1.124-6.366c-.146.56-.293 1.124-.418 1.693-.05.288-.096.581-.134.869a3.663 3.663 0 0 0-.058.836h.046c.065-.265.11-.535.133-.807a24.678 24.678 0 0 1 .481-2.579c.05-.033-.021-.058-.05-.012Zm-21.887 34.117a196.222 196.222 0 0 0-.305-3.177 213.55 213.55 0 0 0-.761-6.27c-.28-2.09-.547-4.18-.882-6.241a15.194 15.194 0 0 0-.639-2.834 2.686 2.686 0 0 0-1.572-1.772c-1.977-.685-3.314 1.367-4.113 2.822-.025.041.042.075.067.033.481-.686 1.802-2.617 3.302-2.529 1.012.063 1.819.778 2.303 3.298 1.208 6.27 2.299 19.011 2.425 19.842.067.444.38.418.38-.05.009-1.045-.113-2.086-.205-3.122Z"/>
  <path fill="#DB3A34" d="M147.23 127.563s1.731-6.107-2.09-3.056c-6.366 5.083-6.592 16.143-6.592 16.143s11.316-6.571 12.724-10.905c2.09-6.463-4.042-2.182-4.042-2.182Z"/>
  <path fill="#263238" d="M149.37 130.56c-.886.179-1.789.297-2.683.418l-1.275.179c-.284.038-.577.067-.865.101.836-1.158 1.692-2.316 2.508-3.499.033-.046-.038-.096-.076-.058a27.602 27.602 0 0 0-1.889 2.182l-.502-1.417c-.192-.548-.418-1.091-.539-1.672 0-.046-.083-.026-.071.025.155.56.263 1.128.418 1.672.155.543.309 1.078.502 1.605a37.742 37.742 0 0 0-1.2 1.647c-.196-.552-.418-1.087-.606-1.647a.041.041 0 0 0-.02-.023.035.035 0 0 0-.03-.002.038.038 0 0 0-.023.02.035.035 0 0 0-.002.03c.205.618.313 1.254.506 1.885-.264.38-.523.761-.77 1.141a54.829 54.829 0 0 0-1.308 2.153.156.156 0 0 0-.1.167 152.244 152.244 0 0 0-2.065 3.762.042.042 0 0 0-.004.029.04.04 0 0 0 .048.027.04.04 0 0 0 .023-.018 50.84 50.84 0 0 1 2.194-3.662 1.97 1.97 0 0 1 .372-.071l.389-.084c.293-.062.581-.138.874-.213a23.753 23.753 0 0 1 1.726-.376c.046 0 .025-.084-.025-.075-.686.133-1.371.209-2.065.288-.326.038-.652.08-.974.134h-.05c.418-.619.836-1.233 1.254-1.839.418-.606.836-1.187 1.254-1.773.393-.058.781-.158 1.17-.234l1.317-.255c.874-.175 1.747-.372 2.625-.518.033.038.012-.038-.038-.029Z"/>
  <path fill="#263238" d="m142.578 131.162-.151-.485a8.82 8.82 0 0 1-.259-1.024c0-.051-.083-.025-.075.02.075.347.155.69.234 1.033.072.346.171.686.297 1.016.033.079.155.046.129-.038-.058-.176-.125-.347-.175-.522Zm7.942-2.027c-.514.075-1.037.112-1.555.158s-1.037.117-1.555.197c-.029 0-.029.046 0 .046a27.72 27.72 0 0 0 1.555-.147c.518-.066 1.037-.146 1.559-.179.054.008.05-.075-.004-.075Zm12.774 8.953c-.201-4.498-.485-8.987-.936-13.468-.226-2.232-.477-4.46-.79-6.688a48.074 48.074 0 0 0-1.292-6.466c-.46-1.618-1.07-3.244-2.153-4.557a4.87 4.87 0 0 0-4.347-1.897c-1.969.242-3.553 1.484-4.924 2.83-1.538 1.513-2.926 3.16-4.368 4.777-.36.418-.719.836-1.074 1.233-.03.038.025.092.054.055a81.311 81.311 0 0 1 4.356-4.64c1.4-1.375 2.838-2.876 4.777-3.444a4.938 4.938 0 0 1 2.776-.063 4.397 4.397 0 0 1 1.898 1.2c1.09 1.137 1.701 2.671 2.14 4.159 1.208 4.134 1.642 8.468 2.09 12.736.455 4.339.765 8.686.982 13.042.217 4.355.389 8.778.811 13.125.054.539.121 1.078.192 1.613.046.364.606.364.577 0-.36-4.527-.564-9.029-.769-13.547Z"/>
  <path fill="#DB3A34" d="M148.605 108.335s2.571-4.753-.464-6.27c-3.034-1.518-13.192 9.81-16.159 26.388 0 0 16.402-7.256 21.974-14.488 5.572-7.231-.744-8.828-5.351-5.63Z"/>
  <path fill="#263238" d="M151.017 112.201c-1.843 0-3.682-.138-5.526-.125.347-.397.69-.794 1.041-1.187a16.7 16.7 0 0 0 1.438-1.672c.029-.038-.029-.092-.067-.063-.498.432-.963.9-1.392 1.4a87.74 87.74 0 0 0-1.379 1.48c-.706.761-1.396 1.534-2.09 2.312v-1.192c0-.627 0-1.254.021-1.876 0-1.254 0-2.542.096-3.804 0-.05-.071-.046-.075 0-.088 1.254-.222 2.537-.284 3.812-.03.623-.046 1.254-.051 1.877v1.509l-.326.363c-1.471 1.672-2.871 3.42-4.23 5.188 0-.096 0-.197-.025-.293 0-.196-.042-.389-.067-.585a31.66 31.66 0 0 0-.167-1.254c-.063-.418-.121-.79-.188-1.183s-.184-.89-.217-1.342a.036.036 0 0 0-.011-.026.039.039 0 0 0-.054 0 .036.036 0 0 0-.011.026c.079.447.131.898.155 1.35l.113 1.217c.038.418.075.815.117 1.22 0 .193.038.389.058.586 0 .096.021.192.034.292.009.082.036.16.079.23l-.702.915a405.538 405.538 0 0 0-2.755 3.721c-.029.037.026.092.055.05a160.762 160.762 0 0 1 2.658-3.344c.673.029 1.363-.021 2.036-.029.673-.009 1.421 0 2.136-.021.046 0 .046-.076 0-.076-.711 0-1.421.025-2.132.025-.71 0-1.312-.029-1.96 0 .794-.967 1.594-1.927 2.399-2.88l.882-1.04c.277.036.557.044.836.025h.97l1.818-.025c1.254-.021 2.508-.063 3.762-.063a.045.045 0 0 0 .021-.015.044.044 0 0 0 .008-.025.04.04 0 0 0-.008-.024.04.04 0 0 0-.021-.015c-1.254 0-2.508-.067-3.762-.101-.606 0-1.212-.033-1.818-.042h-1.53l2.065-2.449a.089.089 0 0 0 .037-.042c.673-.794 1.346-1.588 2.024-2.374l.284-.322c1.91.059 3.816-.067 5.731-.029.025 0 .025-.08-.026-.08Zm-.944 3.261h-.443a.034.034 0 0 0-.024.009.037.037 0 0 0-.01.024c0 .009.004.017.01.024.006.006.015.01.024.01h.447c.05.008.046-.067-.004-.067Z"/>
  <path fill="#263238" d="M149.082 115.466c-.589 0-1.183-.021-1.772-.038l-.887-.025a3.25 3.25 0 0 0-.836 0c-.029 0-.025.046 0 .055.275.055.556.075.836.058h2.655a.034.034 0 0 0 .018.013.033.033 0 0 0 .022 0 .039.039 0 0 0 .019-.012.032.032 0 0 0 .008-.021.031.031 0 0 0-.005-.021.035.035 0 0 0-.016-.016c-.007-.003-.015-.004-.022-.003a.035.035 0 0 0-.02.01Zm-5.158 5.538a24.596 24.596 0 0 0-3.624-.33c-.021 0 0 .025 0 .029 1.204.113 2.412.18 3.607.372.05.009.067-.067.017-.071Zm-4.928-5.279-.038-.318c-.033-.234-.071-.472-.109-.71a28.708 28.708 0 0 0-.234-1.346c0-.042-.079-.029-.075 0 .059.465.109.929.151 1.392.02.23.037.455.058.685-.005.22.026.439.092.648a.084.084 0 0 0 .037.033c.015.008.032.01.049.008a.087.087 0 0 0 .073-.062.872.872 0 0 0-.004-.33Zm24.139-13.493c-.589-1.091-1.338-2.537-2.801-2.445-1.212.075-1.755 1.312-2.014 2.332-.799 3.156-.857 6.487-1.012 9.723-.326 6.834-.623 13.681-.669 20.523v5.694c.021 1.935 0 3.883.138 5.814 0 .038.015.074.042.1a.142.142 0 0 0 .242-.1c0-1.672-.05-3.311-.054-4.966-.004-1.655 0-3.231.034-4.845.05-3.274.136-6.545.259-9.814.121-3.252.263-6.5.418-9.748.071-1.626.138-3.248.213-4.874.075-1.626.138-3.147.318-4.711.1-.877.229-1.755.418-2.616a3.642 3.642 0 0 1 .756-1.756 1.676 1.676 0 0 1 2.136-.154 4.509 4.509 0 0 1 1.517 1.893c.017.034.08-.004.059-.05Z"/>
  <path fill="#DB3A34" d="M162.738 101.71s-1.208-4.251 1.459-2.128c4.43 3.545 4.598 11.248 4.598 11.248s-7.884-4.598-8.862-7.599c-1.471-4.498 2.805-1.521 2.805-1.521Z"/>
  <path fill="#263238" d="M167.127 107.67c-.071-.117-.146-.23-.222-.347a2.444 2.444 0 0 0 0-.363v-.552c0-.36.021-.715.042-1.074a.04.04 0 0 0-.015-.021.044.044 0 0 0-.025-.008.04.04 0 0 0-.039.029c0 .351-.029.706-.042 1.057v.757a41.374 41.374 0 0 0-.953-1.421c-.096-.138-.197-.272-.293-.418a8.146 8.146 0 0 1-.025-1.388c0-.493 0-.991.03-1.484 0-.046-.076-.046-.076 0 0 .514-.042 1.028-.067 1.542-.028.366-.038.733-.029 1.1a66.227 66.227 0 0 0-2.387-3.027c-.025-.033-.083 0-.058.046.506.644.991 1.3 1.467 1.965-.928-.217-1.868-.343-2.813-.477-.046 0-.067.067 0 .071.995.155 1.977.418 2.959.619h.021c.376.531.753 1.066 1.12 1.601l.448.656h-.042l-.305-.041c-.218-.026-.439-.042-.656-.059-.456-.038-.912-.063-1.367-.088-.046 0-.046.075 0 .08.447 0 .894.041 1.337.092l.707.083.309.038h.088l.756 1.116c.448.656.836 1.363 1.321 1.998a.034.034 0 0 0 .022.015c.009.002.019 0 .026-.005a.03.03 0 0 0 .015-.022.034.034 0 0 0-.004-.026 20.717 20.717 0 0 0-1.25-2.044Z"/>
  <path fill="#263238" d="M165.15 102.863v-.493a6.757 6.757 0 0 1 .042-1.045c0-.054-.076-.063-.076 0 0 .347-.037.69-.054 1.032v.757a.684.684 0 0 0 0 .247c0 .008.004.017.01.023.006.007.015.01.024.01a.03.03 0 0 0 .023-.01.034.034 0 0 0 .01-.023.683.683 0 0 0 0-.23l.021-.268Zm-.957 1.764c-.293-.05-.594-.067-.891-.092-.297-.025-.648-.054-.974-.096a.036.036 0 0 0-.026.011.039.039 0 0 0-.011.027c0 .01.004.019.011.026a.036.036 0 0 0 .026.011c.623.038 1.254.151 1.865.172.025.004.033-.055 0-.059Zm-.878 20.327c-1.672-1.254-3.144-3.03-5.376-3.118-1.839-.071-3.131 1.313-3.866 2.855a16.03 16.03 0 0 0-.903 2.541 128.019 128.019 0 0 0-.936 3.512 92.685 92.685 0 0 0-1.48 6.993 123.726 123.726 0 0 0-.598 3.937 32.74 32.74 0 0 0-.384 4.038.21.21 0 0 0 .044.155.212.212 0 0 0 .296.032.211.211 0 0 0 .078-.141c.225-1.103.317-2.24.48-3.344.163-1.103.335-2.24.523-3.344.38-2.232.836-4.456 1.321-6.663.476-2.09.944-4.205 1.617-6.236.481-1.455 1.254-3.152 2.826-3.679 2.391-.794 4.564 1.229 6.316 2.546.029-.017.083-.084.042-.084Z"/>
  <path fill="#DB3A34" d="M161.601 123.746s-1.526-4.364.681-5.22c3.315-1.284 11.984 8.481 10.287 23.441 0 0-6.688-3.687-11.645-7.838-4.958-4.15-6.224-9.593-4.034-10.976 2.19-1.384 4.711.593 4.711.593Z"/>
  <path fill="#263238" d="M171.566 138.748c-.231-.522-.5-1.027-.807-1.509-.28-.51-.568-1.019-.865-1.525-.573-.987-1.145-1.973-1.735-2.926l-.292-.473c0-.058.025-.117.037-.175l.101-.418c.071-.322.129-.652.188-.978.121-.64.234-1.292.418-1.919 0-.046-.063-.063-.075 0-.138.64-.339 1.254-.527 1.894-.092.309-.192.618-.276.928a7.588 7.588 0 0 1-.084.321c-.71-1.166-1.433-2.328-2.215-3.452.051-.155.077-.318.075-.481l.075-.652c.059-.493.118-.986.189-1.475.127-.965.302-1.922.526-2.868 0-.046-.062-.058-.075 0-.238.941-.497 1.885-.677 2.838a26 26 0 0 0-.234 1.413c-.029.234-.055.472-.08.711 0 .067-.021.142-.029.213a35.865 35.865 0 0 0-.731-1.008 109.123 109.123 0 0 0-2.358-2.967c-.029-.038-.092 0-.063.042a52.523 52.523 0 0 1 3.762 5.5c.222.351.418.707.652 1.058l-.213-.025c-.28-.038-.564-.055-.836-.08-.557-.053-1.121-.103-1.693-.15-1.128-.088-2.261-.159-3.385-.276-.051 0-.063.067 0 .071 1.141.134 2.274.314 3.41.477l1.672.225c.424.088.855.133 1.288.134.446.719.89 1.439 1.333 2.161a1.89 1.89 0 0 0-.301 0h-3.791c-.05 0-.042.075 0 .075.736 0 1.467.046 2.203.084.351 0 .698.038 1.049.063.172 0 .347.029.523.037.151.032.308.032.459 0l1.129 1.835c.346.558.698 1.115 1.058 1.672.334.597.714 1.168 1.136 1.706.017-.017.076-.038.059-.101Z"/>
  <path fill="#263238" d="M168.377 126.668c-.069.481-.17.958-.301 1.426a24.696 24.696 0 0 1-.426 1.459.058.058 0 0 0 .002.023.05.05 0 0 0 .013.019c.005.006.012.01.019.012a.062.062 0 0 0 .023.002.047.047 0 0 0 .022-.009.05.05 0 0 0 .015-.017.06.06 0 0 0 .006-.022c.146-.473.28-.949.418-1.426.138-.476.188-.974.309-1.45-.017-.059-.096-.059-.1-.017Zm-4.924 2.926a.55.55 0 0 0-.364-.138l-.631-.088c-.393-.054-.786-.096-1.179-.142-.815-.096-1.634-.175-2.449-.276-.01 0-.02.004-.027.011a.04.04 0 0 0-.011.027c0 .01.004.02.011.027a.039.039 0 0 0 .027.011c.769.092 1.534.209 2.303.309.376.05.752.104 1.132.146l.544.063c.212.001.422.036.623.105a.046.046 0 0 0 .016-.007.04.04 0 0 0 .01-.015.032.032 0 0 0 .002-.017c-.001-.006-.004-.011-.007-.016Zm4.911 6.575a26.206 26.206 0 0 0-1.162-.054h-.865a1.48 1.48 0 0 1-.364-.021c-.054 0-.058.088 0 .075.114-.012.229-.012.343 0h.305l.585.038c.385.021.774.046 1.158.046.042-.013.046-.08 0-.084Zm2.362-1.672.125-.656.239-1.296c0-.046-.067-.058-.076 0-.096.418-.192.836-.284 1.254-.05.209-.096.418-.138.627l-.062.293a.79.79 0 0 0-.034.309c0 .038.059.063.084.025a1.6 1.6 0 0 0 .146-.556Z"/>
  <path fill="#6E929D" d="m148.045 144.015.468 5.305 1.585 17.907h14.023l1.978-17.907.585-5.305h-18.639Z"/>
  <path fill="#263238" d="m148.045 144.015.468 5.305h17.586l.585-5.305h-18.639Z"/>
  <path fill="#6E929D" d="M146.657 146.874h21.419v-4.301h-21.419v4.301Z"/>
  <path fill="#263238" d="m.32 167.172 22.92-.1 22.922-.038L92 166.963l45.838.071 22.923.034 22.918.104-22.918.1-22.923.038-45.838.071-45.838-.071-22.923-.038-22.918-.1Z"/>
  <path fill="#6E929D" d="M71.58 133.732v.101c0 .016 0 .067.022.113v.075c.013.053.023.108.029.163 0 .037 0 .075.02.117.022.042.03.175.051.276.02.1.063.338.096.539l.188 1.02c.021.108.042.226.063.347.02.121.058.326.092.497.033.172.067.385.104.59.025.142.055.288.08.438.08.448.163.924.259 1.434a.121.121 0 0 1 0 .038c.1.568.209 1.179.326 1.818.03.167.063.334.096.502.034.167.067.351.096.526 0 .109.038.222.063.335.159.889.33 1.831.514 2.825.063.335.121.673.184 1.016.121.669.247 1.354.376 2.061.034.163.063.326.088.493l.581 3.194c.025.112.042.225.063.338.096.519.192 1.041.284 1.576.012.041.02.083.025.125l.138.761a1335.909 1335.909 0 0 0 .715 3.934c.096.539.196 1.082.297 1.63.125.681.25 1.367.376 2.065.125.698.25 1.396.38 2.09.067.355.13.71.197 1.066.075.418.154.836.23 1.283h36.123a3686.006 3686.006 0 0 0-8.214-33.44l-33.941.054Z"/>
  <path fill="#37474F" d="M77.04 137.912a7669.597 7669.597 0 0 0 5.484 29.26h.501c-1.918-9.777-3.895-19.537-5.852-29.301-.029-.092-.146-.055-.133.041Z"/>
  <path fill="#263238" d="M71.585 133.732v.101c0 .016 0 .067.021.113v.075c.013.053.023.108.03.163 0 .037 0 .075.02.117.021.042.034.175.05.276.017.1.063.338.096.539.059.297.117.635.189 1.02l.062.347c.021.121.059.326.092.497.034.172.067.385.105.59.025.142.054.288.08.439.083.447.166.923.258 1.433a.121.121 0 0 1 0 .038c.105.568.214 1.17.33 1.81.034.167.063.338.092.51.03.171.067.351.097.526.025.109.041.222.062.335.163.886.335 1.831.514 2.826.063.334.122.672.184 1.015.126.669.251 1.355.377 2.061.033.163.062.326.087.493.193 1.028.386 2.093.581 3.194.025.113.042.225.063.338.096.519.192 1.041.284 1.576a.598.598 0 0 1 .025.126l.138.76c.187 1.02.377 2.064.569 3.131.05.263.1.531.146.803.1.539.197 1.082.297 1.63.125.681.25 1.367.376 2.065s.255 1.396.38 2.09c.067.355.13.71.197 1.066.075.418.155.836.234 1.283h18.141l1.45-14.847.05-.527.06-.569.284-2.905.246-2.508 1.166-12.03H71.585Z"/>
  <path fill="#6E929D" d="M51.057 167.172H90.02c.067-3.586.138-7.055.225-10.328v-.239s4.548-2.692 6.998-4.802c.416-.343.8-.724 1.145-1.137 1.567-1.998 3.139-9.681 6.391-16.908H57.126c-7.74 15.022-7.197 27.094-6.069 33.414Z"/>
  <path fill="#263238" d="M99.524 150.135c-2.32.948-4.406 2.407-6.462 3.816-2.136 1.459-4.097 3.147-6.153 4.715-.08.063 0 .192.084.134 2.165-1.384 4.434-2.6 6.579-4.026 2.144-1.425 4.247-2.729 6.056-4.472.072-.067-.008-.209-.104-.167Z"/>
  <path fill="#263238" d="M99.817 136.729c-.276 1.484-.64 2.956-.958 4.431-.3 1.384-.522 2.792-.886 4.18a7.073 7.073 0 0 1-1.94 3.486c-.543.506-1.14.953-1.721 1.413-.31.251-.648.489-.974.744.041-.196.08-.418.113-.598.1-.564.192-1.124.288-1.672a196 196 0 0 0 .602-3.762c.376-2.462.723-4.949 1.254-7.386a.08.08 0 0 0-.056-.098.08.08 0 0 0-.098.057c-.615 2.416-1.292 4.807-1.823 7.243-.264 1.192-1.2 7.106-1.254 7.524-.055.418-.08.866-.092 1.296a5.21 5.21 0 0 0 0 1.325.113.113 0 0 0 .102.066.114.114 0 0 0 .102-.066c.179-.409.305-.838.377-1.279.109-.421.2-.847.276-1.279.029-.15.05-.309.07-.468.582-.355 1.125-.836 1.673-1.212a22.903 22.903 0 0 0 1.734-1.304 6.692 6.692 0 0 0 2.12-3.311c.356-1.389.588-2.808.694-4.238.188-1.672.321-3.344.555-5.016.009-.147-.142-.176-.158-.076ZM60.17 147.062c.618-.322 3.03.251 7.415-.497a5.018 5.018 0 0 0 2.366-.961c1.145-.933 2.01-2.433 2.7-3.716a19.094 19.094 0 0 0 1.89-4.598c.02-.101.162-.051.145.041-.163.907-.255 1.814-.493 2.713a16.74 16.74 0 0 1-.907 2.462c-.665 1.488-1.438 3.085-2.771 4.092-1.4 1.054-3.344 1.254-5.05 1.371-.982.067-4.832-.037-5.346-.585a.217.217 0 0 1 .05-.322Z"/>
  <path fill="#F7A9A0" d="M90.437 77.127c9.505 5.275 44.667 18.768 52.559 13.97 5.881-3.578 5.041-11.257.038-16.21-4.352-4.31-36.956-5.522-46.08-5.773-8.674-.255-15.822 2.83-6.517 8.013Z"/>
  <path fill="#DB3A34" d="m113.815 89.028 14.171-19.442s-24.52-2.386-34.874-1.492c-10.793.932-13.004 5.154.025 11.16 12.833 5.915 20.678 9.773 20.678 9.773Z"/>
  <path fill="#263238" d="M111.424 85.278c.285-.502.64-.966.966-1.438.326-.472.673-.97 1.007-1.459.682-.986 1.38-1.96 2.09-2.926 1.405-1.94 2.801-3.883 4.239-5.797.393-.527.79-1.054 1.2-1.568.409-.514.898-1.057 1.325-1.597.025-.037.071 0 .05.042-.335.49-.627 1.008-.957 1.5a67.175 67.175 0 0 1-1.037 1.502 588.49 588.49 0 0 1-2.09 2.925c-1.396 1.898-2.784 3.804-4.222 5.673l-1.208 1.563c-.418.544-.815 1.125-1.283 1.63-.05.009-.1-.017-.08-.05Z"/>
  <path fill="#fff" d="M101.948 71.146a6.643 6.643 0 0 0-.547 1.768c.402-.473.735-1 .986-1.568.265-.56.449-1.156.548-1.768a6.608 6.608 0 0 0-.987 1.568Zm5.338 9.229a6.446 6.446 0 0 0-1.768-.548 7.15 7.15 0 0 0 3.344 1.53 6.438 6.438 0 0 0-1.576-.982Zm-14.71-6.621a6.45 6.45 0 0 0-1.767-.548 7.152 7.152 0 0 0 3.344 1.53 6.569 6.569 0 0 0-1.576-.982Zm21.386-.978a6.552 6.552 0 0 0-.861-1.639 7.18 7.18 0 0 0 1.254 3.445 6.389 6.389 0 0 0-.393-1.806Zm4.297 7.106a6.69 6.69 0 0 0-1.639.86 7.179 7.179 0 0 0 3.444-1.253 6.495 6.495 0 0 0-1.805.393Z"/>
  <path fill="#263238" d="M93.137 79.25c12.832 5.915 20.678 9.777 20.678 9.777l4.519-6.22-33.967-11.62c-.974 1.973 1.576 4.749 8.77 8.063Z"/>
  <path fill="#F7A9A0" d="M123.099 34.282c-2.633-3.665-9.342-8.778-16.043-12.728-3.252-1.927-13.17-6.462-14.839-4.083-1.667 2.378 1.112 3.966 1.112 3.966s-4.476-1.291-5.94 1.254c-1.462 2.546 2.939 4.87 2.939 4.87s-4.698-.99-5.973 1.672c-1.275 2.663 3.549 4.238 3.549 4.238s-4.251-1.103-4.385 1.518c-.159 3.16 7.908 4.31 11.394 6.62.795.523 15.299 11.772 15.299 11.772l12.887-19.099Z"/>
  <path fill="#263238" d="M87.962 33.538c5.932.866 8.36 2.266 12.862 6.099.088.075.217-.038.134-.126-4.05-4.15-6.864-6.353-12.958-6.27-.31.013-.318.26-.038.297Zm2.153-6.082c6.082 1.434 8.744 2.926 13.739 6.6.067.055.163-.062.096-.12-4.597-4.01-7.452-6.141-13.718-6.772-.28-.021-.397.23-.117.292Zm3.712-5.876c5.785 1.814 8.778 3.343 13.167 7.523a.111.111 0 0 0 .151-.003.114.114 0 0 0 .012-.151c-4.059-4.703-7.78-6.621-13.26-7.524-.371-.076-.438.041-.07.154Z"/>
  <path fill="#F7A9A0" d="M112.503 56.992s-7.336-1.617-10.4-3.034c-3.064-1.417-12.54-10.919-10.605-13.084 2.508-2.792 9.05 1.614 11.976 4.18 0 0 5.773-6.466 11.156-4.322 5.384 2.145-2.127 16.26-2.127 16.26Z"/>
  <path fill="#263238" d="M92.439 40.335c4.117-.903 7.737 2.725 10.763 5.016a.347.347 0 0 0 .459-.011.35.35 0 0 0 .089-.14c2.6-2.545 7.014-5.383 10.789-4.669a.09.09 0 0 0 .059-.014.09.09 0 0 0 .035-.05.086.086 0 0 0-.049-.103c-3.945-1.32-8.506 1.116-11.177 4.088-3.064-2.395-6.855-5.877-10.98-4.155a.02.02 0 0 0 .012.038Z"/>
  <path fill="#F7A9A0" d="M147.109 84.275c-.263 8.121-9.894 7.561-14.053 3.7-9.769-9.059-24.169-27.543-28.073-38.937-1.254-3.666 13.493-19.776 16.361-16.783 5.095 5.309 26.3 35.538 25.765 52.02Z"/>
  <path fill="#263238" d="M122.372 76.467a70.71 70.71 0 0 1 2.09 2.236c.681.756 1.367 1.513 2.044 2.274l2.01 2.303c.33.385.669.765 1.012 1.145l1.024 1.137a22.572 22.572 0 0 1-2.27-2.065 50.463 50.463 0 0 1-2.09-2.244 56.333 56.333 0 0 1-1.973-2.345 55.025 55.025 0 0 1-1.847-2.441Z"/>
  <path fill="#263238" d="M126.468 81.24c.343.494.64.974.937 1.467.142.247.288.494.418.749.14.26.264.527.372.802a4.597 4.597 0 0 1-1.154-1.342 5.027 5.027 0 0 1-.385-.798 2.871 2.871 0 0 1-.188-.878Z"/>
  <path fill="#DB3A34" d="M109.113 141.741H52.708s8.615-53.804 29.398-72.205c2.566-2.274 8.36-1.755 12.122.121 1.35.674 6.195 7.45 7.578 13.861 1.384 6.412 7.457 58.031 7.307 58.223Z"/>
  <path fill="#fff" d="M75.61 85.056a6.479 6.479 0 0 0-1.638.862 7.181 7.181 0 0 0 3.444-1.275 6.498 6.498 0 0 0-1.806.413Zm27.438 6.27a.628.628 0 0 0-.071.05h.075l-.004-.066v.016Zm-14.655 8.486a6.684 6.684 0 0 0-1.639.861 7.182 7.182 0 0 0 3.444-1.275 6.496 6.496 0 0 0-1.805.397v.017Zm-7.679 23.349a6.53 6.53 0 0 0-1.639.865 6.484 6.484 0 0 0 1.806-.418 6.53 6.53 0 0 0 1.639-.865 6.518 6.518 0 0 0-1.806.418ZM67.81 106.859a6.72 6.72 0 0 0-1.638.861 7.172 7.172 0 0 0 3.444-1.275 6.522 6.522 0 0 0-1.789.427l-.017-.013Zm-11.57 32.495a6.523 6.523 0 0 0-1.638.862 7.14 7.14 0 0 0 3.444-1.28 6.489 6.489 0 0 0-1.79.431l-.016-.013Zm24.909-2.035a6.555 6.555 0 0 0-1.639.861 7.127 7.127 0 0 0 3.444-1.279 6.375 6.375 0 0 0-1.789.43l-.016-.012Zm27.751 2.29c-.4.08-.793.192-1.175.335a6.65 6.65 0 0 0-1.639.861 6.555 6.555 0 0 0 1.806-.418 8.34 8.34 0 0 0 1.045-.477 1.45 1.45 0 0 0-.021-.288l-.016-.013Zm-11.658-17.096a6.552 6.552 0 0 0-1.639.861 7.18 7.18 0 0 0 3.444-1.274 6.337 6.337 0 0 0-1.789.426l-.016-.013ZM81.42 76.35a6.55 6.55 0 0 0-.86-1.639 7.181 7.181 0 0 0 1.274 3.444 6.356 6.356 0 0 0-.414-1.805Zm-12.41 63.109a6.49 6.49 0 0 0-.861-1.639 7.179 7.179 0 0 0 1.279 3.436 6.354 6.354 0 0 0-.418-1.797Zm-2.475-15.713a6.476 6.476 0 0 0-.869-1.634c.053.617.194 1.224.418 1.802.208.585.5 1.137.865 1.638a6.5 6.5 0 0 0-.413-1.806Zm21.456-9.338a6.624 6.624 0 0 0-.86-1.638 7.181 7.181 0 0 0 1.274 3.444 6.492 6.492 0 0 0-.414-1.806Zm-7.59-20.143a6.566 6.566 0 0 0-.866-1.639 7.131 7.131 0 0 0 1.28 3.445 6.498 6.498 0 0 0-.415-1.806Zm10.39 45.98a6.04 6.04 0 0 0 .314 1.517h.502a6.498 6.498 0 0 0-.815-1.538v.021Zm15.981-11.704a6.448 6.448 0 0 0-.865-1.639c.054.617.195 1.224.418 1.802.207.585.499 1.137.865 1.638a6.495 6.495 0 0 0-.418-1.818v.017Zm-9.756-45.78a6.47 6.47 0 0 0-.865-1.634c.055.617.195 1.224.418 1.802.204.586.494 1.138.86 1.638a6.498 6.498 0 0 0-.413-1.805Zm-4.43-9.007a6.45 6.45 0 0 0-1.769-.548 7.152 7.152 0 0 0 3.344 1.53 6.568 6.568 0 0 0-1.584-.982h.008Zm-18.464 42.243a6.383 6.383 0 0 0-1.768-.552 6.443 6.443 0 0 0 1.572.986c.56.265 1.156.45 1.768.548a6.46 6.46 0 0 0-1.572-.982Zm-14.584 14.692a6.45 6.45 0 0 0-1.768-.547 7.16 7.16 0 0 0 3.344 1.53 6.45 6.45 0 0 0-1.576-.983Zm38.13 3.662a6.451 6.451 0 0 0-1.768-.548 7.142 7.142 0 0 0 3.344 1.53 6.576 6.576 0 0 0-1.576-.982Zm-1.212-23.303a6.49 6.49 0 0 0-1.768-.548c.471.403 1 .734 1.567.982a6.61 6.61 0 0 0 1.768.552c-.472-.402-1-.735-1.567-.986Zm-3.88-19.78a6.45 6.45 0 0 0-1.767-.548 7.152 7.152 0 0 0 3.344 1.53 6.434 6.434 0 0 0-1.576-.982Zm-23.24 5.48a6.403 6.403 0 0 0-.547 1.768 7.19 7.19 0 0 0 1.53-3.344 6.46 6.46 0 0 0-.983 1.576Zm18.73 32.47a6.496 6.496 0 0 0-.551 1.768c.402-.472.734-1 .986-1.567a6.605 6.605 0 0 0 .548-1.768c-.4.473-.731 1-.982 1.567Zm11.458-28.662a6.473 6.473 0 0 0-.548 1.772c.4-.474.731-1.004.983-1.571a6.44 6.44 0 0 0 .547-1.769 6.56 6.56 0 0 0-.982 1.568ZM73.9 130.89a6.446 6.446 0 0 0-.548 1.768 7.185 7.185 0 0 0 1.53-3.344 6.577 6.577 0 0 0-.982 1.576Zm-14.68-15.7a6.469 6.469 0 0 0-.548 1.772c.4-.474.731-1.004.982-1.571.267-.56.451-1.156.548-1.768a6.64 6.64 0 0 0-.983 1.567Zm19.971-8.778a6.341 6.341 0 0 0-.547 1.772 6.63 6.63 0 0 0 .982-1.571 6.605 6.605 0 0 0 .548-1.768 6.51 6.51 0 0 0-.983 1.58v-.013Zm7.345-22.915a6.64 6.64 0 0 0-.548 1.769c.403-.473.735-1 .987-1.568a6.6 6.6 0 0 0 .547-1.768 6.584 6.584 0 0 0-.986 1.58v-.013Z"/>
  <path fill="#F7A9A0" d="M72.454 143.677c0-3.156.916-22.225.373-28.479-.184-2.09 7.055-25.468 8.924-33.318 1.755-7.365-1.994-10.617-7.5-3.683-4.576 5.769-16.54 28.294-18.955 34.309-2.416 6.015-4.933 26.28-4.916 30.564.017 3.39 22.062 3.725 22.074.607Z"/>
  <path fill="#F7A9A0" d="M74.862 170.83c-2.17 1.091-3.925-.711-3.925-.711a5.177 5.177 0 0 1-2.746 2.207c-2.048.594-3.883-2.362-3.883-2.362a6.357 6.357 0 0 1-3.269 1.865c-2.019.372-4.289-2.345-4.289-2.345a5.592 5.592 0 0 1-3.908-.172c-3.256-1.534-3.904-6.989-4.351-10.45-.448-3.461 1.776-14.709 1.952-16.699l21.966-2.09s6.428 14.969 6.374 19.116c-.058 3.511-1.5 10.412-3.92 11.641Z"/>
  <path fill="#263238" d="M71.016 170.035c.937-3.707.732-7.486.736-11.285a.067.067 0 0 0-.13 0c.038 3.761-.672 7.486-.785 11.244a.091.091 0 0 0 .011.069.09.09 0 0 0 .058.041.09.09 0 0 0 .07-.011.093.093 0 0 0 .04-.058Zm-6.441-.179c.129-.862.147-1.738.054-2.604a87.45 87.45 0 0 0-.184-2.768 108.333 108.333 0 0 0-.585-5.513c0-.079-.138-.084-.13 0 .147 1.835.264 3.674.331 5.513.038.924.063 1.844.084 2.768-.038.87.02 1.742.175 2.6a.134.134 0 0 0 .255.004Zm-7.845-.452c.192-.723 0-1.605-.08-2.345-.084-.836-.167-1.672-.242-2.508-.155-1.672-.306-3.344-.398-5.016 0-.083-.137-.083-.133 0 .088 1.706.15 3.42.255 5.125.05.836.104 1.672.163 2.508.05.715.033 1.609.35 2.266.018.02.072.008.084-.03Z"/>
  <path fill="#DB3A34" d="m77.249 106.028-22.777.075S66.916 84.843 73.7 76.981c7.08-8.197 11.8-7.524 9.025 6.562-2.722 13.865-5.476 22.485-5.476 22.485Z"/>
  <path fill="#fff" d="M69.336 96.748a6.406 6.406 0 0 0-.547 1.768 7.19 7.19 0 0 0 1.53-3.344 6.462 6.462 0 0 0-.983 1.576Zm3.394-18.584-.234.288c.295.1.6.17.907.213a4.767 4.767 0 0 0-.673-.501Zm-7.28 11.704a8.295 8.295 0 0 0-.38-.861l-.268.418c.058.209.125.418.197.614.208.585.5 1.137.865 1.639a6.49 6.49 0 0 0-.414-1.835v.025Zm14.95 4.414a6.563 6.563 0 0 0-.866-1.639c.053.619.194 1.227.418 1.806.084.213.172.418.264.631.063-.26.125-.518.192-.786l-.008-.012Zm1.02-17.916a6.548 6.548 0 0 0-.862-1.638 7.182 7.182 0 0 0 1.275 3.444 6.353 6.353 0 0 0-.413-1.822v.016Zm-22.83 24.721a6.66 6.66 0 0 0-1.622.836 7.197 7.197 0 0 0 3.436-1.275 6.505 6.505 0 0 0-1.814.422v.017Zm17.02-16.014a6.477 6.477 0 0 0-1.638.861 7.181 7.181 0 0 0 3.444-1.275 6.496 6.496 0 0 0-1.806.397v.017Z"/>
  <path fill="#263238" d="M58.205 102.433c.573-.063 1.158-.046 1.73-.055l1.773-.033c1.2-.025 2.4-.029 3.595-.025 2.395 0 4.79 0 7.18.046.661 0 1.317.029 1.974.058.656.03 1.383.113 2.09.142.042 0 .033.063 0 .067-.594 0-1.187.08-1.78.101-.594.02-1.217.033-1.828.037h-3.59c-2.358-.021-4.715-.033-7.073-.108l-1.973-.067c-.685-.021-1.392 0-2.09-.092-.037-.013-.046-.067-.008-.071Zm22.091-6.968c.489-.74.83-1.568 1.007-2.437 0 0-.025-.021-.029 0a13.964 13.964 0 0 1-.92 2.17l.214-.941c.25-1.141.505-2.274.702-3.424 0 0-.025-.029-.03 0-.572 1.948-1.057 3.93-1.584 5.894a1265.24 1265.24 0 0 0-1.584 5.977c-.288 1.091-.576 2.178-.836 3.269-.372.034-.66.021-.99.05-.088 0-.096.159 0 .168.417.032.837.025 1.254-.021 1.124-3.516 1.985-7.11 2.796-10.705Zm.381-22.907a19.423 19.423 0 0 0 6.78 7.228 9.813 9.813 0 0 0 4.547 1.588 4.075 4.075 0 0 0 2.433-.514 4.87 4.87 0 0 0 1.576-1.931 9.778 9.778 0 0 0 .865-2.76c.188-1.082.298-2.177.33-3.276 0-.042.063-.034.059 0-.03 1.04.025 2.09-.084 3.118-.076.914-.27 1.815-.577 2.68a6.136 6.136 0 0 1-1.362 2.19 3.677 3.677 0 0 1-2.353 1.028 8.825 8.825 0 0 1-4.937-1.229 16.654 16.654 0 0 1-4.055-3.164 18.391 18.391 0 0 1-3.321-4.945.05.05 0 0 1 .01-.046.05.05 0 0 1 .044-.016.05.05 0 0 1 .039.026.05.05 0 0 1 .006.023Z"/>
  <path fill="#F7A9A0" d="M93.434 79.067c-3.219.898-8.995-3.842-11.361-7.78-.16-.27.146-3.193.35-6.767.114-2.169.193-4.598.105-6.796-.02-.452 13.999 2.813 13.999 2.813s-1.179 4.686-.999 8.54c.016.304.059.606.13.902 0 .042.02.092.029.15.347 1.715.857 8.068-2.253 8.938Z"/>
  <path fill="#263238" d="M94.266 70.26a8.577 8.577 0 0 0 1.417-.13 1.094 1.094 0 0 0-.026-.15 4.648 4.648 0 0 1-.13-.904c-.175-3.85.996-8.54.996-8.54s-11.378-2.65-13.619-2.846c.531 2.537 3.177 12.72 11.362 12.57Z"/>
  <path fill="#F7A9A0" d="M83.536 38.487c-2.508 4.49-3.002 18.927-.26 22.769 3.98 5.567 12.001 7.766 17.113 2.637 4.954-4.982 5.259-23.792 2.061-27.441-4.732-5.372-15.198-4.594-18.914 2.035Z"/>
  <path fill="#263238" d="M100.134 40.042a5.466 5.466 0 0 1-4.957 1.948c-1.83-.263-3.666-1.488-4.351-3.248a.045.045 0 0 0-.025-.018.046.046 0 0 0-.054.022.045.045 0 0 0-.005.03c.736 1.877 2.299 3.406 4.368 3.653a5.639 5.639 0 0 0 5.129-2.299c.05-.071-.05-.155-.105-.088Zm-5.43-11.695c-2.273-.61-4.765.485-6.11 2.353a8.105 8.105 0 0 0-1.388 3.796.046.046 0 0 0 .087 0c.39-2.145 1.73-4.314 3.725-5.292a4.94 4.94 0 0 1 5.689.744 5.016 5.016 0 0 1 1.53 2.96.1.1 0 0 0 .196-.026 5.117 5.117 0 0 0-3.729-4.535Zm17.092 5.246a6.564 6.564 0 0 0-2.88-3.5c-1.86-1.103-3.933-.894-5.989-.647a.046.046 0 0 0 0 .088c1.751-.205 3.54-.314 5.17.485a6.488 6.488 0 0 1 3.064 3.101 6.332 6.332 0 0 1-2.474 7.909 6.43 6.43 0 0 1-5.062.61c-.063 0-.113.08-.042.1a6.461 6.461 0 0 0 8.205-8.146h.008Z"/>
  <path fill="#263238" d="M82.725 40.427s.25-4.41 1.392-5.76c1.14-1.35 3.666-1.672 3.666-1.672s1.471-3.733 5.016-3.984c3.193-.225 5.358 2.592 5.358 2.592s4.414-4.393 9.468-1.906c4.799 2.362 4.18 9.664-.439 12.005-3.26 1.638-7.754-1.2-7.754-1.2-.418.063-4.778 2.771-8.147-1.1 0 0-2.988 2.341-4.715.707-.004-.008-2.286 1.104-3.845.318Z"/>
  <path fill="#263238" d="M86.336 35.315c-.154 2.182-.656 8.393-1.45 9.756-.794 1.362-2.688 4.928-3.457 5.179.084-4.694.836-9.497 2.09-11.763a10.194 10.194 0 0 1 2.817-3.172Z" opacity=".2"/>
  <path fill="#F7A9A0" d="M83.44 50.17s-2.266-5.128-4.536-4.405c-2.27.723-1.183 7.724 1.045 9.091a2.507 2.507 0 0 0 3.532-.669l-.042-4.017Z"/>
  <path fill="#263238" d="M79.268 47.763c-.038 0-.059.041-.025.062 1.546 1.012 2.127 2.75 2.428 4.494-.376-.723-.99-1.2-1.943-.77-.05.026 0 .101.029.101a1.522 1.522 0 0 1 1.546.836c.232.478.41.98.531 1.497.05.163.335.137.314-.046a.154.154 0 0 0 0-.042c.46-2.128-.598-5.464-2.88-6.132Zm14.237 2.161c0-.038-.08.042-.08.084 0 .973-.175 2.09-1.07 2.378-.025 0-.025.054 0 .054 1.087-.113 1.317-1.592 1.15-2.516Z"/>
  <path fill="#263238" d="M92.673 48.879c-1.56-.176-1.802 2.955-.355 3.118 1.446.163 1.663-2.972.355-3.118Zm6.93 1.458c0-.037.076.05.072.088-.11.97-.067 2.09.785 2.508.03 0 .021.059 0 .05-1.07-.25-1.111-1.747-.856-2.645Z"/>
  <path fill="#263238" d="M100.548 49.389c1.572 0 1.451 3.143 0 3.139-1.45-.004-1.317-3.14 0-3.14Zm-9.434-2.458c.368-.242.748-.418 1.137-.61a2.09 2.09 0 0 1 1.279-.418.669.669 0 0 1 .522.623c0 .627-.476 1.044-.995 1.341a2.42 2.42 0 0 1-1.713.322.71.71 0 0 1-.23-1.258Zm11.382 1.246a12.692 12.692 0 0 0-1.011-.807 2.091 2.091 0 0 0-1.183-.623.67.67 0 0 0-.627.518c-.1.619.284 1.112.74 1.497a2.42 2.42 0 0 0 1.626.627.705.705 0 0 0 .455-1.212Z"/>
  <path fill="#263238" d="M93.852 57.506c1.254-.418 2.834-.13 3.829.067.113 0 .23-.226.255-.326 0-.038.083-2.056.083-2.056.26.154 1.593.869 1.597.48.034-3.206.071-6.771-.573-9.969a.088.088 0 0 0-.175 0c-.155 3.08.234 6.17.125 9.263a5.656 5.656 0 0 0-1.505-.573c-.108.021.025 2.178-.037 2.508 0 0-1.915-.727-3.587.18-.43.238-.61.619-.012.426Zm-2.065 1.296c.217.243.418.565.773.619.358.017.716-.043 1.05-.176a.034.034 0 0 1 .037.055 1.295 1.295 0 0 1-1.254.418 1.023 1.023 0 0 1-.702-.9c-.009-.033.067-.05.096-.016Z"/>
  <path fill="#fff" d="M87.44 47.692c-1.325 0-.615-2.508-.334-3.373.194-.925.306-1.865.334-2.81.028.946.144 1.886.347 2.81.276.869.986 3.373-.347 3.373Z"/>
  <path fill="#263238" d="M104.026 54.463c.104-1.15.184-2.295.234-3.444.05-1.15.088-2.295.079-3.444a85.832 85.832 0 0 0-.079-3.44c0-.573-.058-1.146-.104-1.718-.046-.573-.101-1.15-.13-1.727.258 1.127.444 2.269.556 3.42.121 1.152.18 2.31.175 3.469a34.27 34.27 0 0 1-.175 3.465 50.41 50.41 0 0 1-.217 1.718 17.399 17.399 0 0 1-.339 1.701Z"/>
  <path fill="#EBEBEB" d="M78.532 171.967c.03.171.063.342.097.518l-.093-.518h-.004Z"/>
  <path fill="#fff" d="M76.84 36.339a10.383 10.383 0 0 0 1.784-5.723c0-7.269-7.98-13.162-17.82-13.162-9.839 0-17.814 5.893-17.814 13.162 0 7.27 7.975 13.159 17.815 13.159 4.77 0 9.095-1.38 12.289-3.64l6.14 1.558-2.395-5.354Z"/>
  <path fill="#263238" d="M76.84 36.339a10.555 10.555 0 0 0 1.671-5.434 10.099 10.099 0 0 0-1.505-5.434 13.962 13.962 0 0 0-3.9-4.096 18.771 18.771 0 0 0-5.09-2.509 22.541 22.541 0 0 0-5.594-1.036 24.098 24.098 0 0 0-5.672.318 20.607 20.607 0 0 0-5.396 1.71 16.448 16.448 0 0 0-4.598 3.21 11.482 11.482 0 0 0-2.905 4.702 9.501 9.501 0 0 0-.071 5.463c.532 1.8 1.5 3.44 2.817 4.778a16.464 16.464 0 0 0 4.573 3.269 21.202 21.202 0 0 0 5.384 1.747 23.74 23.74 0 0 0 5.676.384 20.938 20.938 0 0 0 10.747-3.448l.075-.055.084.026 6.115 1.647-.117.137-2.295-5.38Zm0 0 2.478 5.304.088.188-.205-.05-6.161-1.471.158-.03a19.089 19.089 0 0 1-5.204 2.621 22.989 22.989 0 0 1-5.726 1.116c-1.956.137-3.92.037-5.852-.296a21.6 21.6 0 0 1-5.58-1.793 17.137 17.137 0 0 1-4.807-3.395 12.225 12.225 0 0 1-3.052-5.066 10.241 10.241 0 0 1 .05-5.931 12.302 12.302 0 0 1 3.135-5.016 17.227 17.227 0 0 1 4.874-3.32 21.457 21.457 0 0 1 5.601-1.738 23.592 23.592 0 0 1 11.575.886 19.113 19.113 0 0 1 5.191 2.675 13.969 13.969 0 0 1 3.93 4.306 10.166 10.166 0 0 1-.481 11.035l-.013-.025Z"/>
  <path fill="#263238" d="M46.626 29.208a.319.319 0 0 1 .322-.322.329.329 0 0 1 .304.197c.017.04.026.082.026.125v3.47a.327.327 0 0 1-.628.124.323.323 0 0 1-.024-.125v-3.47Zm1.622 1.012a.498.498 0 0 0 .418-.527.418.418 0 0 1-.334-.397v-.063a.381.381 0 0 1 .397-.393c.259 0 .418.2.418.518v.059a1.16 1.16 0 0 1-.289.836.865.865 0 0 1-.551.255.165.165 0 0 1-.131-.041.164.164 0 0 1-.053-.126.171.171 0 0 1 .125-.122Zm5.025-1.012v3.47a.335.335 0 0 1-.33.325.322.322 0 0 1-.322-.326v-2.474l-.837 1.178a.318.318 0 0 1-.263.134.34.34 0 0 1-.272-.134l-.836-1.178v2.474a.326.326 0 0 1-.652 0v-3.47a.326.326 0 0 1 .322-.321.313.313 0 0 1 .255.134l1.17 1.626 1.171-1.626a.326.326 0 0 1 .494-.038c.06.06.096.14.1.226Zm3.059 2.772a.305.305 0 0 1 .418-.043c.315.27.71.428 1.124.452.262.006.52-.07.736-.218a.526.526 0 0 0 .255-.418.356.356 0 0 0-.054-.188.581.581 0 0 0-.176-.175 2.306 2.306 0 0 0-.806-.276 3.275 3.275 0 0 1-.757-.23 1.253 1.253 0 0 1-.548-.46.907.907 0 0 1-.138-.48 1.087 1.087 0 0 1 .473-.862 1.759 1.759 0 0 1 1.015-.309c.465.024.913.187 1.284.468a.31.31 0 0 1 .002.505.293.293 0 0 1-.337.001 1.738 1.738 0 0 0-.949-.376 1.125 1.125 0 0 0-.656.2.467.467 0 0 0-.225.372.28.28 0 0 0 .041.163.62.62 0 0 0 .16.155c.226.133.475.22.735.26.28.047.552.13.81.246.24.104.444.274.59.489.091.15.14.322.138.497a1.128 1.128 0 0 1-.489.907 1.823 1.823 0 0 1-1.087.335 2.507 2.507 0 0 1-1.505-.585.313.313 0 0 1-.054-.43Zm7.298-2.584c.38.402.593.934.594 1.488a2.144 2.144 0 0 1-.594 1.488 1.918 1.918 0 0 1-1.404.631 1.976 1.976 0 0 1-1.442-.631 2.136 2.136 0 0 1-.581-1.488 2.157 2.157 0 0 1 .58-1.488 1.974 1.974 0 0 1 1.443-.627 1.913 1.913 0 0 1 1.404.627Zm-.079 1.488c.001-.38-.14-.747-.397-1.028a1.254 1.254 0 0 0-1.449-.31 1.287 1.287 0 0 0-.432.31 1.467 1.467 0 0 0 0 2.052 1.255 1.255 0 0 0 1.88 0c.254-.273.396-.63.398-1.003v-.021Zm4.556 1.63a.329.329 0 0 1-.209.418.61.61 0 0 1-.13 0 .418.418 0 0 1-.23-.067.557.557 0 0 1-.187-.205 1.568 1.568 0 0 1-.121-.706.497.497 0 0 0-.072-.25.573.573 0 0 0-.175-.172 1.171 1.171 0 0 0-.33-.142h-.694v1.254a.327.327 0 0 1-.629.124.323.323 0 0 1-.023-.124v-3.47a.318.318 0 0 1 .322-.322h1.053a1.254 1.254 0 0 1 1.132 1.789c-.08.167-.195.314-.338.43.08.062.149.135.205.218.128.187.197.409.196.636-.005.116.002.232.021.347a.322.322 0 0 1 .21.242Zm-.836-2.366a.605.605 0 0 0-.606-.61h-.723v1.212h.723a.605.605 0 0 0 .619-.602h-.013Zm4.51 2.366a.325.325 0 0 1-.205.418.653.653 0 0 1-.13 0 .418.418 0 0 1-.229-.067.522.522 0 0 1-.188-.205 1.56 1.56 0 0 1-.126-.706.493.493 0 0 0-.247-.422 1.122 1.122 0 0 0-.33-.142h-.693v1.254a.326.326 0 0 1-.652 0v-3.47a.317.317 0 0 1 .322-.322h1.053a1.254 1.254 0 0 1 .803 2.228.93.93 0 0 1 .204.218c.127.187.194.409.193.635-.005.116.003.233.025.347a.319.319 0 0 1 .2.234Zm-.836-2.366a.605.605 0 0 0-.606-.61h-.723v1.212h.723a.608.608 0 0 0 .619-.602h-.013Zm4.506-.71-1.203 1.672v1.584a.321.321 0 0 1-.553.228.33.33 0 0 1-.095-.228V31.11l-1.196-1.672a.319.319 0 0 1 .514-.376l1.004 1.375 1.007-1.375a.32.32 0 0 1 .579.136.322.322 0 0 1-.056.24Z"/>
</svg>
