<svg xmlns="http://www.w3.org/2000/svg" width="182" height="187" fill="none" viewBox="0 0 182 187">
  <path fill="#EBEBEB" d="m169.488 121.091-5.608.12-2.847.047c-.953.021-1.911 0-2.864.025h-.188v-.192l-.025-4.796v-.213h.213l5.659.025c1.89 0 3.775.047 5.66.069h.119v.119c0 .812-.038 1.62-.055 2.42l-.064 2.376Zm0 0-.06-2.415c0-.795-.047-1.581-.056-2.368l.116.12c-1.885.021-3.77.068-5.66.068l-5.659.026.214-.214-.021 4.783-.193-.188c.932 0 1.864 0 2.8.021l2.812.052 5.707.115Zm-6.314 6.031-5.607.12-2.847.047c-.953 0-1.911 0-2.864.025h-.171v-.192l-.026-4.783v-.214h.214l5.659.03c1.89 0 3.775.047 5.66.069h.119v.115c0 .812-.034 1.62-.055 2.419l-.082 2.364Zm0 0-.059-2.415c-.022-.795-.047-1.581-.056-2.368l.115.12c-1.885.021-3.77.068-5.659.068l-5.659.026.214-.214v4.783l-.193-.188c.932 0 1.864 0 2.8.021l2.813.052 5.684.115Zm12.631 0-5.612.12-2.847.047c-.953 0-1.906 0-2.859.025h-.193v-.192l-.021-4.783v-.214h.235l5.659.03c1.885 0 3.77.047 5.659.069h.116v.115c0 .812-.039 1.62-.056 2.419l-.081 2.364Zm0 0-.064-2.415c0-.795-.047-1.581-.056-2.368l.12.12c-1.889.021-3.774.068-5.659.068l-5.659.026.209-.214-.021 4.783-.188-.188c.931 0 1.859 0 2.795.021l2.813.052 5.71.115ZM23.81 121.091l-5.611.12-2.847.047c-.949.021-1.907 0-2.86.025H12.3v-.192l-.021-4.796v-.213h.218l5.659.025c1.885 0 3.77.047 5.659.069h.115v.119c0 .812-.038 1.62-.055 2.42l-.064 2.376Zm0 0-.06-2.415c0-.795-.05-1.581-.059-2.368l.12.12c-1.89.021-3.774.068-5.66.068l-5.659.026.214-.214-.026 4.783-.188-.188c.932 0 1.86 0 2.796.021l2.812.052 5.71.115Zm-6.313 6.031-5.612.12-2.846.047c-.953 0-1.907 0-2.864.025h-.188v-.192l-.022-4.783v-.214h.214l5.66.03c1.889 0 3.774.047 5.663.069h.115v.115c0 .812-.038 1.62-.055 2.419l-.065 2.364Zm0 0-.064-2.415c0-.795-.047-1.581-.055-2.368l.12.12c-1.89.021-3.775.068-5.664.068l-5.66.026.215-.214v4.783l-.193-.188c.936 0 1.864 0 2.8.021l2.812.052 5.69.115Zm101.417-74.197-5.612.11-2.847.048c-.949 0-1.906 0-2.859.021h-.193v-5.189h.218l5.659.026c1.885 0 3.77.047 5.66.068h.115v.115c0 .813-.038 1.616-.055 2.415l-.086 2.386Zm0 0-.064-2.42c0-.795-.047-1.581-.056-2.363l.12.115c-1.889.021-3.774.068-5.659.068l-5.659.03.213-.213-.025 4.782-.188-.192c.931 0 1.859 0 2.795.026l2.813.047 5.71.12Zm-6.317 6.031-5.608.12-2.847.046h-3.052v-.192l-.025-4.783v-.218h.213l5.659.026c1.89 0 3.775.047 5.66.068h.119v.115c0 .813-.038 1.616-.055 2.415l-.064 2.403Zm0 0-.06-2.42c0-.795-.047-1.581-.056-2.363l.116.115c-1.885 0-3.77.068-5.66.068l-5.659.03.214-.213-.021 4.782-.193-.192c.936 0 1.864 0 2.8.026l2.812.047 5.707.12Zm12.63 0-5.612.12-2.847.046h-3.052v-.192l-.021-4.783v-.218h.214l5.659.026c1.885 0 3.77.047 5.659.068h.116v.115c0 .813-.035 1.616-.056 2.415l-.06 2.403Zm0 0-.06-2.42c0-.795-.051-1.581-.055-2.363l.115.115c-1.889 0-3.774.068-5.659.068l-5.659.03.213-.213-.025 4.782-.188-.192c.932 0 1.863 0 2.795.026l2.813.047 5.71.12Zm43.607-41.235-5.608.12-2.847.047c-.953 0-1.911 0-2.864.026h-.188v-.193l-.025-4.783v-.213h.213l5.659.025c1.89 0 3.775.052 5.66.073h.119v.115c0 .812-.038 1.62-.06 2.415l-.059 2.368Zm0 0-.052-2.415c0-.799-.047-1.585-.055-2.368l.115.116c-1.885 0-3.77.068-5.659.072l-5.659.026.213-.214-.021 4.783-.192-.192c.932 0 1.863 0 2.799.026l2.813.047 5.698.12Zm6.313 6.031-5.608.12-2.847.047c-.953.021-1.906 0-2.864.021h-.175v-.192l-.025-4.783v-.213h.213l5.659.025c1.89 0 3.775.051 5.66.073h.119v.115c0 .812-.038 1.62-.055 2.415l-.077 2.372Zm0 0-.06-2.415c0-.799-.047-1.585-.056-2.367l.116.115c-1.885.021-3.77.068-5.659.072l-5.66.026.214-.213-.021 4.782-.193-.192c.936 0 1.864 0 2.8.026l2.813.047 5.706.12Zm-157.65-6.026-5.612.12-2.846.046c-.953 0-1.907 0-2.864.026h-.188v-.192l-.022-4.783v-.214h.214l5.66.03c1.889 0 3.774.047 5.663.068h.115v.116c0 .812-.038 1.62-.055 2.419l-.065 2.364Zm0 0-.064-2.415c0-.8-.047-1.586-.055-2.368l.12.115c-1.89.026-3.775.069-5.664.073l-5.66.025.215-.213v4.783l-.214-.167h2.8l2.812.047 5.71.12ZM32.24 30.25H9.282v27.842H32.24V30.25Z"/>
  <path fill="#fff" d="M29.615 32.792H11.907v22.761h17.708v-22.76Z"/>
  <path fill="#DBDBDB" d="M12.6 32.792h-.693v22.761h.692v-22.76Zm20.332-2.542h-.692v27.842h.692V30.25Zm-10.083 7.702h-4.176v12.442h4.176V37.952Z"/>
  <path fill="#EBEBEB" d="M26.542 47.436h-11.54v-6.522h11.54v6.522Zm-11.113-.427h10.685V41.34H15.43v5.668Zm34.882 17.794H27.354v27.843h22.957V64.803Z"/>
  <path fill="#fff" d="M47.687 67.346H29.979v22.76h17.708v-22.76Z"/>
  <path fill="#DBDBDB" d="M30.671 67.346h-.692v22.76h.692v-22.76ZM51 64.803h-.693v27.843H51V64.803Z"/>
  <path fill="#EBEBEB" d="M40.694 73.227h-3.577v9.045h3.577v-9.045Z"/>
  <path fill="#DBDBDB" d="M43.849 85.174H33.813V78.51h10.036v6.664Zm-9.609-.427h9.181v-5.81H34.24v5.81Z"/>
  <path fill="#EBEBEB" d="M90.99 186.488c46.792 0 84.725-3.716 84.725-8.301 0-4.584-37.933-8.301-84.725-8.301-46.792 0-84.725 3.717-84.725 8.301 0 4.585 37.932 8.301 84.725 8.301Z"/>
  <path fill="#6E929D" d="M162.08 106.456h-.325v34.237h.325v-34.237Zm9.844-13.439-9.288 47.676h-.329l9.301-47.74.316.064Z"/>
  <path fill="#6E929D" d="M161.802 140.693h-.32l-2.813-59.746.321-.017 2.765 58.84.047.923Z"/>
  <path fill="#004359" d="M168.163 69.56a16.137 16.137 0 0 1-3.963 6.386c-2.44 2.509-4.949 3.873-4.928 4.142.077.76.816 1.919.761 2.171-.056.252-.68.504-1.201.504-.522 0-1.146-.252-1.206-.504-.059-.252.684-1.41.757-2.171.055-.539-10.126-5.497-9.425-15.302.363-5.031 3.543-7.066 6.236-7.886a12.93 12.93 0 0 1 2.296-.466c.445-.052.893-.08 1.342-.081 1.432 0 9.284.35 9.865 8.433a12.876 12.876 0 0 1-.534 4.774Z"/>
  <path fill="#000" d="M159.272 80.088c.077.76.816 1.919.761 2.171-.056.252-.68.504-1.201.504-.522 0-1.146-.252-1.206-.504-.059-.252.684-1.41.757-2.171.055-.539-10.126-5.497-9.425-15.302.363-5.031 3.543-7.066 6.236-7.886-2.389 2.047-5.334 6.07-3.205 12.617 1.97 6.049 7.757 7.84 12.211 6.412-2.44 2.526-4.949 3.89-4.928 4.159Z" opacity=".1"/>
  <path fill="#fff" d="M165.641 61.866a2.217 2.217 0 0 1-2.651 2.176 2.215 2.215 0 0 1-1.743-1.743 2.214 2.214 0 0 1 .943-2.277 2.22 2.22 0 0 1 3.451 1.844Z"/>
  <path fill="#C7C7C7" d="M181.097 80.938a16.019 16.019 0 0 1-3.963 6.39c-2.436 2.51-4.949 3.873-4.924 4.138.077.76.817 1.92.757 2.171-.06.253-.675.505-1.201.505s-1.146-.252-1.201-.505c-.056-.252.679-1.41.756-2.17.052-.535-10.13-5.493-9.425-15.299.364-5.035 3.54-7.07 6.237-7.886a12.581 12.581 0 0 1 2.295-.47c.444-.05.891-.076 1.338-.077 1.436 0 9.288.346 9.869 8.433.12 1.61-.062 3.228-.538 4.77Z"/>
  <path fill="#A6A6A6" d="M172.202 91.466c.077.76.816 1.92.756 2.171-.06.253-.675.505-1.201.505s-1.145-.252-1.201-.505c-.055-.252.68-1.41.757-2.17.051-.535-10.13-5.493-9.425-15.299.363-5.035 3.539-7.07 6.236-7.886-2.394 2.043-5.339 6.066-3.206 12.618 1.967 6.044 7.754 7.84 12.208 6.411-2.428 2.527-4.924 3.89-4.924 4.155Z"/>
  <path fill="#fff" d="M178.891 73.275a2.217 2.217 0 0 1-2.651 2.175 2.219 2.219 0 1 1 2.651-2.175Z"/>
  <path fill="#37474F" d="M171.244 94.39a16.172 16.172 0 0 1-4.022 6.432c-2.419 2.467-4.881 3.804-4.86 4.069.077.761.817 1.92.761 2.172-.055.252-.679.504-1.201.504-.521 0-1.145-.252-1.205-.504-.06-.252.684-1.411.756-2.172.052-.534-10.13-5.492-9.403-15.297.367-5.074 3.59-7.1 6.296-7.908.746-.219 1.51-.372 2.282-.457.582-.06 1.039-.073 1.283-.073 1.431 0 9.283.35 9.865 8.438a12.87 12.87 0 0 1-.552 4.796Z"/>
  <path fill="#6E929D" d="M152.048 89.594c.368-5.074 3.591-7.1 6.296-7.908-2.406 2.018-5.458 6.061-3.299 12.7 1.962 6.03 7.728 7.83 12.177 6.436-2.419 2.467-4.881 3.804-4.86 4.069.077.761.817 1.92.761 2.172-.055.252-.679.504-1.201.504-.521 0-1.145-.252-1.205-.504-.06-.252.684-1.411.756-2.172.043-.534-10.13-5.492-9.425-15.297Z"/>
  <path fill="#fff" d="M168.782 86.627a2.217 2.217 0 0 1-2.651 2.176 2.223 2.223 0 0 1-1.743-1.743 2.225 2.225 0 0 1 2.176-2.651 2.22 2.22 0 0 1 2.218 2.219Z"/>
  <path fill="#004359" d="M165.153 132.747h-6.103v7.976h6.103v-7.976Z"/>
  <path fill="#6E929D" d="M13.467 106.456h-.325v34.237h.325v-34.237Zm9.839-13.439-9.288 47.676h-.329l9.305-47.74.312.064Z"/>
  <path fill="#6E929D" d="M13.185 140.693h-.32l-2.813-59.746.325-.017 2.765 58.84.043.923Z"/>
  <path fill="#C7C7C7" d="M19.545 69.56a16.033 16.033 0 0 1-3.962 6.386c-2.437 2.51-4.95 3.873-4.924 4.142.077.76.816 1.919.756 2.171-.06.252-.675.505-1.2.505-.527 0-1.142-.253-1.202-.505-.06-.252.68-1.41.757-2.171.05-.539-10.13-5.497-9.404-15.302.342-5.031 3.518-7.049 6.215-7.903.75-.212 1.519-.355 2.295-.428a12.21 12.21 0 0 1 1.338-.081c1.436 0 9.288.35 9.87 8.433a12.944 12.944 0 0 1-.54 4.753Z"/>
  <path fill="#A6A6A6" d="M10.659 80.088c.077.76.816 1.919.756 2.171-.06.252-.675.504-1.2.504-.527 0-1.142-.252-1.202-.504-.06-.252.68-1.41.757-2.171.05-.539-10.13-5.497-9.404-15.302.342-5.031 3.518-7.049 6.215-7.903-2.394 2.047-5.339 6.07-3.206 12.617 1.966 6.049 7.754 7.84 12.208 6.412-2.437 2.543-4.95 3.906-4.924 4.176Z"/>
  <path fill="#fff" d="M17.044 61.866a2.218 2.218 0 1 1-4.436 0 2.218 2.218 0 0 1 4.436 0Z"/>
  <path fill="#37474F" d="M32.483 80.938a16.066 16.066 0 0 1-3.962 6.39c-2.44 2.51-4.95 3.873-4.924 4.138.073.76.816 1.92.756 2.171-.06.253-.68.505-1.2.505-.522 0-1.146-.252-1.206-.505-.06-.252.684-1.41.757-2.17.055-.535-10.126-5.493-9.404-15.299.36-5.035 3.54-7.07 6.232-7.886a12.668 12.668 0 0 1 3.637-.547c1.432 0 9.289.346 9.87 8.433a12.907 12.907 0 0 1-.556 4.77Z"/>
  <path fill="#6E929D" d="M23.597 91.466c.073.76.816 1.92.756 2.171-.06.253-.68.505-1.2.505-.522 0-1.146-.252-1.206-.505-.06-.252.684-1.41.757-2.17.055-.535-10.126-5.493-9.404-15.299.36-5.035 3.54-7.07 6.232-7.886-2.39 2.043-5.334 6.066-3.206 12.618 1.97 6.044 7.758 7.84 12.212 6.411-2.458 2.527-4.967 3.89-4.941 4.155Z"/>
  <path fill="#fff" d="M30.295 73.275a2.222 2.222 0 1 1-4.445.008 2.222 2.222 0 0 1 4.445-.008Z"/>
  <path fill="#004359" d="M22.627 94.39a16.081 16.081 0 0 1-4.022 6.432c-2.42 2.467-4.882 3.804-4.856 4.069.073.761.816 1.92.756 2.172-.06.252-.675.504-1.2.504-.526 0-1.146-.252-1.202-.504-.055-.252.68-1.411.757-2.172.051-.534-10.13-5.492-9.404-15.297.364-5.074 3.59-7.1 6.296-7.908a13.238 13.238 0 0 1 3.544-.513c1.436 0 9.288.35 9.87 8.438a12.782 12.782 0 0 1-.54 4.778Z"/>
  <path fill="#000" d="M3.435 89.594c.363-5.074 3.59-7.1 6.296-7.908-2.406 2.018-5.458 6.061-3.3 12.7 1.962 6.03 7.724 7.83 12.174 6.436-2.42 2.467-4.882 3.804-4.856 4.069.073.761.816 1.92.756 2.172-.06.252-.675.504-1.2.504-.526 0-1.146-.252-1.202-.504-.055-.252.68-1.411.757-2.172.051-.534-10.13-5.492-9.425-15.297Z" opacity=".1"/>
  <path fill="#fff" d="M20.156 86.627a2.219 2.219 0 1 1-4.438 0 2.219 2.219 0 0 1 4.438 0Z"/>
  <path fill="#004359" d="M16.54 132.747h-6.104v7.976h6.104v-7.976Z"/>
  <path fill="#6E929D" d="m2.914 140.689 22.016-.103 22.022-.038 44.038-.073 44.038.073 22.021.038 22.017.103-22.017.107-22.021.034-44.038.073-44.038-.073-22.021-.039-22.017-.102Z"/>
  <path fill="#004359" d="M162.431 26.697a231.24 231.24 0 0 1-142.882 0L28.222 0a203.13 203.13 0 0 0 125.536 0l8.673 26.697Z"/>
  <path fill="#fff" d="m50.269 14.16 2.188.428c.225 1.362.457 2.727.697 4.095.7-1.197 1.392-2.398 2.073-3.603.735.128 1.473.252 2.214.371-.983 1.65-1.98 3.297-2.992 4.942.322 1.33.652 2.66.992 3.988a289.392 289.392 0 0 0 4.962-8.51c.855.128 1.724.249 2.607.363a294.188 294.188 0 0 1-6.86 10.916c-.71-.11-1.415-.226-2.137-.346a250.832 250.832 0 0 1-1.376-5.262 246.085 246.085 0 0 1-3.116 4.463 61.423 61.423 0 0 1-2.112-.428 302.783 302.783 0 0 1-2.624-12.605c.855.191 1.702.377 2.543.556.527 3.234 1.105 6.47 1.735 9.707.77-1.14 1.528-2.28 2.274-3.42a371.96 371.96 0 0 1-1.068-5.654Zm21.747 12.896c-.06.667-.115 1.334-.175 2.005-3.026-.26-6.047-.583-9.061-.97.498-3.899.995-7.798 1.491-11.7 2.81.36 5.621.66 8.433.903-.06.666-.115 1.338-.175 2.004-2.029-.18-4.057-.386-6.086-.62-.111.94-.218 1.881-.33 2.822 1.779.208 3.555.392 5.33.551l-.166 1.855a212.019 212.019 0 0 1-5.377-.556c-.116 1.018-.235 2.035-.35 3.052 2.142.248 4.298.466 6.466.654Zm1.817 2.167.906-11.763c.804.065 1.607.12 2.41.176l-.64 9.754c2.205.145 4.412.256 6.62.333l-.072 2.009c-3.078-.1-6.152-.27-9.224-.509Zm9.365-5.463a5.75 5.75 0 0 1 .496-2.136 5.89 5.89 0 0 1 1.282-1.847 6.3 6.3 0 0 1 1.97-1.282 6.43 6.43 0 0 1 2.6-.483 6.056 6.056 0 0 1 2.966.714 4.77 4.77 0 0 1 1.897 1.825c-.62.427-1.24.825-1.868 1.235a2.99 2.99 0 0 0-.606-.855 3.094 3.094 0 0 0-.761-.538 3.793 3.793 0 0 0-.855-.295 4.678 4.678 0 0 0-.855-.094 3.514 3.514 0 0 0-1.603.333 3.419 3.419 0 0 0-1.145.924c-.316.366-.558.79-.714 1.248-.163.448-.254.92-.27 1.397a4.215 4.215 0 0 0 .24 1.51 3.771 3.771 0 0 0 1.932 2.188c.482.23 1.01.348 1.543.346.307-.001.614-.033.915-.094.314-.066.619-.173.906-.317a3.24 3.24 0 0 0 .77-.577c.247-.232.445-.513.58-.825a233.7 233.7 0 0 0 2.07 1.056c-.2.45-.492.853-.856 1.184-.385.343-.817.63-1.282.855-.496.24-1.018.42-1.556.539a7.437 7.437 0 0 1-1.628.175 5.981 5.981 0 0 1-2.565-.564 6.436 6.436 0 0 1-1.962-1.437 6.168 6.168 0 0 1-1.235-1.979 5.583 5.583 0 0 1-.406-2.205Zm18.717 5.938a6.335 6.335 0 0 1-2.629-.393 6.136 6.136 0 0 1-2.047-1.283 5.92 5.92 0 0 1-1.338-1.889 5.652 5.652 0 0 1-.072-4.466 6.296 6.296 0 0 1 5.556-3.924 5.884 5.884 0 0 1 2.488.389 6.331 6.331 0 0 1 3.359 3.077c.343.665.552 1.392.616 2.137a5.563 5.563 0 0 1-.295 2.279 5.944 5.944 0 0 1-1.176 2 6.204 6.204 0 0 1-1.932 1.445 6.531 6.531 0 0 1-2.53.628Zm-3.996-5.822c.016.503.119.999.303 1.466.178.46.442.88.778 1.24a3.56 3.56 0 0 0 2.834 1.09 3.514 3.514 0 0 0 2.731-1.398 3.84 3.84 0 0 0 .646-1.316 4.4 4.4 0 0 0 .149-1.45 4.274 4.274 0 0 0-.359-1.457 4.083 4.083 0 0 0-.808-1.214 3.518 3.518 0 0 0-1.201-.803 3.63 3.63 0 0 0-1.543-.244 3.54 3.54 0 0 0-1.556.428c-.435.23-.815.55-1.115.94a3.996 3.996 0 0 0-.663 1.282c-.142.465-.209.95-.196 1.436Zm22.991 3.993-1.047-7.745a222.84 222.84 0 0 1-2.565 6.189l-1.363.158a243.81 243.81 0 0 1-3.907-5.433c.257 2.59.512 5.18.765 7.77-.855.082-1.71.163-2.564.236a9800.47 9800.47 0 0 0-1.018-11.75c.855-.077 1.71-.154 2.565-.24a269.93 269.93 0 0 0 4.432 6.271 222.57 222.57 0 0 0 2.911-7.13c.855-.116 1.71-.236 2.565-.359l1.709 11.67c-.773.128-1.628.247-2.483.363Zm13.836-4.369.398 1.97c-2.99.602-5.989 1.143-8.998 1.625-.615-3.881-1.234-7.764-1.855-11.648 2.795-.444 5.584-.947 8.365-1.508l.397 1.97c-2.009.405-4.02.78-6.035 1.124.163.932.321 1.868.479 2.8 1.764-.302 3.526-.627 5.287-.975l.359 1.825c-1.772.35-3.549.678-5.33.983.171 1.01.346 2.018.517 3.03 2.146-.367 4.285-.766 6.416-1.196Zm1.676-2.825-1.552-7.314c.765-.162 1.534-.329 2.3-.5.547 2.428 1.092 4.859 1.637 7.292-.8.18-1.59.35-2.385.522Zm.923 4.338c-.175-.816-.351-1.637-.522-2.453.804-.171 1.605-.346 2.403-.526l.551 2.45c-.812.179-1.62.341-2.432.53Z"/>
  <path fill="#000" d="M29.756 3.454a4.795 4.795 0 0 1-.14 1.615 13.731 13.731 0 0 1-.471 1.548 14.531 14.531 0 0 1-1.415 2.889c.282-1.043.654-2.043 1.017-3.043l.548-1.492c.189-.494.343-1.001.461-1.517Zm.428.35c.232.402.409.833.525 1.282.123.45.21.909.261 1.373a8.075 8.075 0 0 1-.175 2.774c-.06-.466-.086-.92-.124-1.377-.038-.457-.081-.902-.124-1.35a49.652 49.652 0 0 0-.363-2.702Zm1.013-.35c.327.347.678.672 1.051.97a9.027 9.027 0 0 0 2.436 1.402c.428.184.894.312 1.36.47a4.702 4.702 0 0 1-1.462-.154 5.36 5.36 0 0 1-2.577-1.479 3.893 3.893 0 0 1-.808-1.21Zm121.377 0c.118.517.273 1.025.462 1.521l.551 1.47c.363 1 .731 2.001 1.013 3.044a15.042 15.042 0 0 1-1.881-4.441 4.709 4.709 0 0 1-.145-1.594Zm-.423.35c-.15.915-.269 1.808-.363 2.71-.047.449-.09.898-.124 1.35-.034.454-.069.911-.129 1.377a8.092 8.092 0 0 1-.175-2.774 8.9 8.9 0 0 1 .261-1.372c.117-.452.295-.887.53-1.29Zm-1.013-.35c-.199.452-.48.864-.829 1.214a5.363 5.363 0 0 1-2.539 1.474c-.475.128-.967.18-1.458.154.466-.158.919-.286 1.355-.47a9.491 9.491 0 0 0 2.419-1.402c.373-.298.725-.623 1.052-.97Z" opacity=".1"/>
  <path fill="#6E929D" d="M31.197 3.454a1.013 1.013 0 1 1-2.026 0 1.013 1.013 0 0 1 2.026 0Zm121.612 0a1.015 1.015 0 0 1-.625.936 1.012 1.012 0 1 1 .625-.936ZM65.344 54.425a1.064 1.064 0 0 1-.889 1.205 1.047 1.047 0 0 1-1.167-.923 1.073 1.073 0 0 1 .894-1.206 1.046 1.046 0 0 1 1.162.924Zm81.691 4.441a1.07 1.07 0 0 1-.894 1.205 1.042 1.042 0 0 1-1.162-.923 1.067 1.067 0 0 1 .889-1.205 1.05 1.05 0 0 1 1.167.923Z"/>
  <path fill="#004359" d="M123.56 50.5a.531.531 0 0 1-.449.6.52.52 0 0 1-.581-.458.533.533 0 0 1 .428-.603.516.516 0 0 1 .401.101.53.53 0 0 1 .201.36Zm-65.055 0a.53.53 0 0 1-.427.6.516.516 0 0 1-.582-.458.534.534 0 0 1 .428-.603.523.523 0 0 1 .581.462Z"/>
  <path fill="#6E929D" d="M136.114 16.674a.532.532 0 0 1-.428.598.508.508 0 0 1-.52-.261.52.52 0 0 1-.061-.196.532.532 0 0 1 .427-.603.522.522 0 0 1 .582.462Zm-27.386 67.675a.525.525 0 0 1-.427.603.526.526 0 0 1-.52-.266.519.519 0 0 1-.061-.196.531.531 0 0 1 .427-.598.516.516 0 0 1 .521.261c.033.06.054.127.06.196Zm-8.625-75.45a.533.533 0 0 1-.428.603.522.522 0 0 1-.581-.462.534.534 0 0 1 .428-.603.521.521 0 0 1 .581.462Z"/>
  <path fill="#004359" d="M42.207 63.691a.534.534 0 0 1-.427.603.52.52 0 0 1-.581-.462.534.534 0 0 1 .427-.602.523.523 0 0 1 .581.461Z"/>
  <path fill="#455A64" d="M130.6 106.037a.535.535 0 0 1-.091.388.539.539 0 0 1-.336.215.524.524 0 0 1-.582-.462.539.539 0 0 1 .449-.603.52.52 0 0 1 .56.462Z"/>
  <path fill="#004359" d="M60.292 96.792a.534.534 0 0 1-.428.602.518.518 0 0 1-.58-.461.53.53 0 0 1 .427-.603.521.521 0 0 1 .58.462Zm7.368-20.586a1.065 1.065 0 0 1-.888 1.206 1.043 1.043 0 0 1-1.167-.924 1.064 1.064 0 0 1 .893-1.2 1.038 1.038 0 0 1 1.163.918Z"/>
  <path fill="#455A64" d="M76.457 20.726a1.073 1.073 0 0 1-.854 1.205 1.045 1.045 0 0 1-1.163-.923 1.064 1.064 0 0 1 .889-1.205 1.047 1.047 0 0 1 1.128.923ZM62.352 86.704a1.068 1.068 0 0 1-.893 1.206 1.038 1.038 0 0 1-1.163-.92 1.064 1.064 0 0 1 .89-1.205 1.044 1.044 0 0 1 1.166.92Z"/>
  <path fill="#6E929D" d="M115.024 12.72a1.058 1.058 0 0 1-.889 1.201 1.037 1.037 0 0 1-1.162-.919 1.064 1.064 0 0 1 .889-1.205 1.036 1.036 0 0 1 1.162.923Zm-.846 34.836 1.47-.509s-1.004-.534-1-2.197c.005-1.663 1.372-2.317.778-3.817l-1.633.462a3.234 3.234 0 0 1 .073 2.564c-.432.932-.821 2.065.312 3.497Z"/>
  <path fill="#455A64" d="m78.21 54.044-1.45-.581s.454 1.069-.56 2.355c-1.012 1.287-2.474.902-2.931 2.458l1.547.714a3.134 3.134 0 0 1 1.492-2.022c.919-.445 1.915-1.069 1.902-2.924Z"/>
  <path fill="#6E929D" d="m44.708 82.481-1.445-.564s.428 1.069-.564 2.355c-.992 1.287-2.475.902-2.928 2.458l1.543.714a3.133 3.133 0 0 1 1.492-2.022c.919-.466 1.915-1.09 1.902-2.94Z"/>
  <path fill="#004359" d="m155.814 79.536-1.445-.56s.449 1.065-.564 2.356c-1.013 1.29-2.475.901-2.928 2.453l1.543.718a3.143 3.143 0 0 1 1.492-2.026c.919-.479 1.915-1.103 1.902-2.94Z"/>
  <path fill="#6E929D" d="m50.713 39.674.21-1.586s-.907.693-2.343-.043c-1.436-.735-1.397-2.303-2.962-2.419l-.333 1.71a2.993 2.993 0 0 1 2.24 1.06c.636.834 1.444 1.701 3.188 1.278Z"/>
  <path fill="#004359" d="m41.707 103.626.21-1.586s-.907.693-2.343-.042c-1.436-.736-1.397-2.3-2.962-2.42l-.333 1.71a2.997 2.997 0 0 1 2.24 1.06c.637.834 1.444 1.701 3.188 1.278Z"/>
  <path fill="#455A64" d="m93.952 99.365.21-1.586s-.907.692-2.343-.043-1.398-2.3-2.962-2.42l-.333 1.71a2.992 2.992 0 0 1 2.235 1.06c.658.834 1.45 1.702 3.193 1.279Z"/>
  <path fill="#004359" d="m156.301 43.696.21-1.586s-.902.693-2.343-.047c-1.44-.739-1.397-2.3-2.962-2.415l-.329 1.71a2.994 2.994 0 0 1 2.236 1.06c.637.834 1.444 1.697 3.188 1.278Z"/>
  <path fill="#455A64" d="m63.515 105.473.295 1.573s.64-.958 2.23-.736c1.59.223 2.035 1.71 3.553 1.304l-.218-1.74a2.93 2.93 0 0 1-2.445-.256c-.86-.573-1.894-1.124-3.415-.145Z"/>
  <path fill="#004359" d="m89.4 72.697-1.633-.914s-1.316 2.06.27 3.099c0-.017-.33-1.355 1.363-2.185Z"/>
  <path fill="#004359" d="m88.08 77.374 1.709-.663s.098-1.522-1.757-1.846c.004 0 1.167 1.376.047 2.509Z"/>
  <path fill="#455A64" d="m43.802 8.412-1.629-.915s-1.32 2.06.27 3.099c0 0-.33-1.338 1.359-2.184Zm-1.317 4.693 1.71-.663s.098-1.521-1.757-1.846c.004 0 1.167 1.376.047 2.509Z"/>
  <path fill="#6E929D" d="M100.342 46.808a1.07 1.07 0 0 1 .893-1.205 1.046 1.046 0 0 1 1.04.532c.066.12.108.254.123.39a1.073 1.073 0 0 1-.893 1.206 1.05 1.05 0 0 1-1.163-.923Z"/>
  <path fill="#004359" d="M133.754 67.504a1.067 1.067 0 0 1 .894-1.2 1.033 1.033 0 0 1 .774.215 1.046 1.046 0 0 1 .388.703 1.064 1.064 0 0 1-.889 1.205 1.049 1.049 0 0 1-1.167-.923Zm-21.82 37.575c-.039-.278.032-.56.2-.785.167-.226.416-.377.693-.42a1.034 1.034 0 0 1 1.04.532c.066.121.108.254.123.391a1.073 1.073 0 0 1-.889 1.206 1.047 1.047 0 0 1-.775-.22 1.053 1.053 0 0 1-.392-.704ZM25.473 87.516a.53.53 0 0 1 .428-.602.523.523 0 0 1 .581.461.539.539 0 0 1-.449.603.517.517 0 0 1-.56-.462Zm83.854-11.54a.537.537 0 0 1 .427-.603.524.524 0 0 1 .581.462.533.533 0 0 1-.427.602.526.526 0 0 1-.581-.461Z"/>
  <path fill="#37474F" d="M95.311 33.027a.535.535 0 0 1 .428-.602.523.523 0 0 1 .581.461.535.535 0 0 1-.427.603.522.522 0 0 1-.582-.462Z"/>
  <path fill="#004359" d="M134.417 37.849a1.07 1.07 0 0 1 .893-1.205 1.042 1.042 0 0 1 1.163.923 1.067 1.067 0 0 1-.893 1.2 1.046 1.046 0 0 1-1.039-.528 1.052 1.052 0 0 1-.124-.39Z"/>
  <path fill="#455A64" d="M27.876 76.224a1.064 1.064 0 0 1 .889-1.201 1.044 1.044 0 0 1 1.166.919 1.069 1.069 0 0 1-.893 1.205 1.037 1.037 0 0 1-1.162-.923ZM71.2 38.358l-2.47.726s-1.176-3.197 1.282-4.099c-.013 0-.847 1.701 1.188 3.373Z"/>
  <path fill="#455A64" d="m70.794 31.613 2.137 1.427s-.312 2.086-2.915 1.945c-.017 0 1.962-1.496.778-3.372Zm79.382 68.111-2.466.726s-1.175-3.197 1.282-4.099c-.013 0-.846 1.701 1.184 3.373Z"/>
  <path fill="#455A64" d="m149.774 92.979 2.138 1.428s-.312 2.086-2.915 1.944c-.018 0 1.957-1.496.777-3.372Z"/>
  <path fill="#6E929D" d="m133.558 78.224-.334-2.637s3.223-.74 3.728 1.897c0 0-1.509-1.098-3.394.74Z"/>
  <path fill="#6E929D" d="m140.063 78.788-1.675 1.966s-1.949-.624-1.436-3.27c0 0 1.145 2.245 3.111 1.304Zm-66.328 17.35-2.471.722s-1.175-3.193 1.282-4.095c-.008.022-.842 1.701 1.189 3.373Z"/>
  <path fill="#6E929D" d="m73.333 89.388 2.137 1.432s-.312 2.086-2.915 1.945c-.017.022 1.957-1.496.778-3.377Z"/>
  <path fill="#455A64" d="m118.038 30.946 1.628.919s1.321-2.06-.265-3.099c0 0 .325 1.338-1.363 2.18Zm1.321-4.689-1.71.658s-.103 1.522 1.757 1.851c-.005 0-1.172-1.376-.047-2.509Z"/>
  <path fill="#004359" d="m115.11 83.909.269 1.898s2.385-.146 2.231-2.082c0 0-.833 1.073-2.5.184Zm4.415-1.727-1.538-1.022s-1.236.83-.377 2.565c0 0 .368-1.795 1.915-1.543Z"/>
  <path fill="#ECD5D2" d="M57.732 177.708c.923.3 28.133-.042 29.125-.692.384-.239-1.53-25.842-1.53-25.842l-17.585.175 1.876 17.131s-10.006 4.629-11.019 5.459c-1.013.829-1.803 3.479-.867 3.769Z"/>
  <path fill="#fff" d="M57.732 177.708c.919.3 28.137-.042 29.125-.692.18-.107-.133-5.604-.517-11.498H69.29l.324 2.958s-10.006 4.633-11.023 5.462c-1.018.83-1.796 3.48-.86 3.77Z"/>
  <path fill="#A6A6A6" d="M57.432 178.085c.97.316 28.45.055 29.493-.624.402-.252-.18-9.314-.18-9.365H69.752v.303s-10.566 4.843-11.639 5.715c-1.073.872-1.65 3.654-.68 3.971Z"/>
  <path fill="#6E929D" d="M57.505 176.991c4.672-.159 23.509-.36 28.15-.159.035 0 .035.026 0 .03-4.624.257-23.478.299-28.15.205-.098.013-.098-.076 0-.076Zm10.258-8.827c1.834-.359 4.087-.098 5.501 1.201.056.047 0 .124-.076.107a25.566 25.566 0 0 0-5.416-1.073.118.118 0 0 1-.072-.039.119.119 0 0 1-.006-.152.12.12 0 0 1 .07-.044Zm-1.32.812c1.833-.359 4.086-.098 5.5 1.201.056.047 0 .124-.076.107a25.627 25.627 0 0 0-5.416-1.073.123.123 0 0 1-.071-.038.121.121 0 0 1-.006-.153.12.12 0 0 1 .069-.044Zm-1.317.812c1.834-.359 4.082-.098 5.501 1.197.056.051 0 .128-.077.111a25.693 25.693 0 0 0-5.415-1.073.117.117 0 0 1-.102-.114.12.12 0 0 1 .093-.121Z"/>
  <path fill="#455A64" d="M67.836 167.754h18.935s-3.163-43.906-3.052-44.5c.188-.988 1.308-5.463 2.796-11.31.466-1.829.97-3.796 1.492-5.83 1.41-5.501 2.97-11.51 4.325-16.747 2.035-7.835 3.62-13.926 3.62-13.926H79.907s-1.868 5.929-4.228 13.644c-3.847 12.532-8.976 29.788-9.476 33.981-.615 5.078 1.633 44.688 1.633 44.688Z"/>
  <path fill="#6E929D" d="M68.717 164.304c2.885-.059 2.055-.085 4.945-.111 1.41 0 10.686-.094 12.015.124a.03.03 0 0 1 .014.011.031.031 0 0 1 0 .034.028.028 0 0 1-.014.011c-1.32.218-10.605.141-12.015.124-2.89-.026-2.06-.052-4.945-.111a.045.045 0 0 1-.02.001.041.041 0 0 1-.019-.007.047.047 0 0 1-.013-.016.041.041 0 0 1 0-.038.047.047 0 0 1 .013-.016.041.041 0 0 1 .019-.007.045.045 0 0 1 .02.001Zm24.32-86.687-2.945 10.365-2.868 10.387c-.957 3.462-1.88 6.933-2.804 10.404a484 484 0 0 0-2.675 10.437c-.206.881-.428 1.753-.586 2.642-.047.218-.077.449-.115.671 0 .124-.026.261 0 .38l.025.334 2.518 38.246v.116l.214-.133-2.321-38.259-.026-.333v-.295c.043-.218.068-.428.115-.654.176-.855.39-1.744.59-2.616 1.684-6.98 3.56-13.913 5.386-20.859l5.492-20.833Z"/>
  <path fill="#6E929D" d="M80.304 75.441c1.116 8.617 5.13 22.936 6.694 34.661 3.62-14.204 8.976-34.66 8.976-34.66h-15.67Z"/>
  <path fill="#ECD5D2" d="M118.965 177.572c-.927.29-23.786.393-24.79-.27-.381-.243-.514-4.099-.543-8.762v-.145c0-.962-2.219-17.097-2.219-17.097l17.268.35 1.996 16.961v.29s6.45 4.039 7.463 4.886c1.013.846 1.757 3.5.825 3.787Z"/>
  <path fill="#fff" d="M93.324 165.518c.192 1.543.32 2.646.32 2.877v.145c.03 4.663.163 8.514.543 8.762.992.663 23.851.565 24.791.274.94-.291.175-2.962-.833-3.8-1.009-.838-7.468-4.907-7.468-4.907v-.286l-.363-3.082-16.99.017Z"/>
  <path fill="#A6A6A6" d="M120.098 178.085c-.975.316-25.556.055-26.603-.624-.402-.252.18-9.314.175-9.365h17.003v.303s7.668 4.843 8.741 5.715c1.073.872 1.654 3.654.684 3.971Z"/>
  <path fill="#6E929D" d="M120.021 176.991c-4.667-.159-20.624-.36-25.252-.159-.039 0-.039.026 0 .03 4.624.257 20.58.299 25.252.205.098.013.098-.076 0-.076Zm-10.728-8.323c-2.33-.645-5.228-.641-7.117.641-.073.047 0 .146.09.133a36.243 36.243 0 0 1 7.001-.513.134.134 0 0 0 .125-.119.128.128 0 0 0-.024-.089.134.134 0 0 0-.075-.053Zm1.641 1.086c-2.33-.645-5.228-.641-7.117.641-.073.047 0 .145.09.133a36.25 36.25 0 0 1 7.001-.513.135.135 0 0 0 .085-.037.135.135 0 0 0 .017-.172.135.135 0 0 0-.076-.052Zm1.641 1.086c-2.329-.646-5.227-.641-7.117.641-.072.047 0 .145.095.132a36.282 36.282 0 0 1 6.997-.513.13.13 0 0 0 .124-.119.132.132 0 0 0-.099-.141Z"/>
  <path fill="#455A64" d="M80.304 75.442s2.437 14.831 2.599 15.306c0 0 .906.427 2.539 1.184l6.65 75.745 19.026.077-10.049-92.325-20.765.013Z"/>
  <path fill="#6E929D" d="M92.734 164.291c2.906-.047 2.069-.072 4.975-.089 1.423 0 10.771-.047 12.101.175.025 0 .025.055 0 .06-1.334.213-10.686.094-12.1.077-2.907-.043-2.074-.064-4.976-.137a.043.043 0 0 1-.03-.013.041.041 0 0 1-.013-.03c0-.011.005-.022.013-.03a.043.043 0 0 1 .03-.013ZM82.1 90.29a35.425 35.425 0 0 1 5.44 2.847.064.064 0 0 1-.06.111c-1.833-.889-3.705-1.748-5.492-2.74a.124.124 0 0 1 .111-.218Zm.7-8.497c.3 1.774.466 3.578.667 5.364.047.428.099.855.145 1.283.011.395.117.782.308 1.128.385.598 1.077.88 1.71 1.154.073.03.043.145-.034.12a4.115 4.115 0 0 1-1.808-.958c-.573-.602-.556-1.517-.641-2.29a49.66 49.66 0 0 1-.428-5.797.043.043 0 0 1 .081-.004Z"/>
  <path fill="#6E929D" d="M84.959 82.336c.064 1.282.205 2.564.312 3.847.051.628.098 1.26.137 1.89.038.627.11 1.281.09 1.94 0 .042-.069.055-.078 0-.102-.607-.12-1.24-.17-1.851a78.44 78.44 0 0 1-.133-1.94c-.073-1.283-.107-2.595-.222-3.882-.004-.043.06-.043.064-.004Zm.859 11.494 1.017 8.706 1.06 8.694 2.193 17.388 3.885 33.951-3.483-34.002-2.283-17.375-1.175-8.681-1.214-8.681Z"/>
  <path fill="#ECD5D2" d="M85.198 55.147C82.72 58.524 74.94 68.782 69.781 69.48c-3.398.461-14.302-.398-17.05-1.475-1.137-.449 2.034-10.835 3.385-10.686 2.505.244 12.006 2.616 13.455 2.287 1.283-.295 5.506-3.45 13.041-7.668 3.869-2.188 4.723.295 2.586 3.21Z"/>
  <path fill="#ECD5D2" d="M53.44 68.15c-1.171.055-6.552-.172-8.035-.569-1.484-.398-5.672-1.85-5.484-3.018.188-1.167 1.449-.855 1.449-.855s-1.672-.893-1.377-2.051c.295-1.159 2.244-.581 2.244-.581s-1.65-1.044-1.282-2.176c.367-1.133 2.235-.231 2.235-.231s-1.551-.885-.854-1.71c.854-.961 3.526.988 5.197 1.304.38.073 7.796.906 7.796.906l-1.889 8.98Z"/>
  <path fill="#6E929D" d="M43.04 58.592c1.976 1.428 3.087 1.71 5.48 1.868.047 0 .052.073 0 .073-2.359.064-3.804-.094-5.556-1.851-.081-.068-.017-.141.077-.09Zm-.957 2.381c2.176 1.303 3.381 1.624 5.873 1.97a.034.034 0 0 1 .022.032.035.035 0 0 1-.022.032c-2.475-.136-3.915-.324-5.92-1.914-.094-.073-.055-.18.047-.12Zm-.585 2.748c2.201 1.112 3.5 1.518 5.984 1.544a.04.04 0 0 1 .024.016.047.047 0 0 1-.024.073 8.163 8.163 0 0 1-5.984-1.564c-.154-.069-.141-.124 0-.069Z"/>
  <path fill="#ECD5D2" d="M56.116 57.31s-2.565-1.676-3.847-2.163c-1.282-.487-6.74-.539-6.839.637-.098 1.522 3.043 2.171 4.625 2.29 0 0-.24 3.519 1.915 4.472 2.154.953 4.146-5.236 4.146-5.236Z"/>
  <path fill="#6E929D" d="M45.567 56.203c.906 1.453 2.992 1.474 4.518 1.71a.141.141 0 0 1 .111.2c0 1.484.427 3.57 1.71 4.467a.034.034 0 0 1-.008.063.035.035 0 0 1-.026-.003c-1.505-.774-2.095-2.791-1.988-4.411-1.569-.214-3.659-.325-4.33-2.013-.004-.013.009-.022.013-.013Z"/>
  <path fill="#004359" d="m74.68 55.865 6.56 6.698s4.275-4.518 6.237-8.976c1.961-4.458-2.014-4.172-4.925-2.513-2.91 1.658-7.873 4.791-7.873 4.791Z"/>
  <path fill="#fff" d="M87.327 53.92c-.034.077-.073.154-.111.231h-.428a1.535 1.535 0 0 0-.196 0 4.06 4.06 0 0 0-.45.064c-.215.04-.428.094-.636.163a8.694 8.694 0 0 0-1.885.88l-.124.073c-.124.072-.244.15-.363.226-1.488.98-2.851 2.137-4.296 3.21-.252.184-.504.368-.76.543l-.12-.124c.26-.184.517-.372.773-.564 1.428-1.069 2.779-2.252 4.275-3.248.106-.069.218-.142.329-.206a1.12 1.12 0 0 1 .12-.072 8.976 8.976 0 0 1 1.974-.936 5.45 5.45 0 0 1 1.116-.244l.222-.021h.347l.213.025Zm-2.167 2.787a14.524 14.524 0 0 1-.855-.76l-.141-.133-.526-.517-.158-.163-.26-.265c-.856-.885-1.663-1.812-2.493-2.722l-.085.05c.82.924 1.628 1.86 2.479 2.762l.24.248c.046.056.098.107.153.162.175.18.35.36.535.535l.14.132c.283.274.573.539.855.79.141.116.282.232.428.343l.09-.133a42.073 42.073 0 0 0-.402-.329Zm2.197-3.304c-.27.18-.53.36-.791.552-.137.093-.273.196-.427.299-.68.508-1.334 1.038-1.996 1.56l-.116.09c-.32.256-.645.508-.97.752a16.151 16.151 0 0 1-4.638 2.611l-.329.099.098.098c.092-.02.181-.045.27-.077a16.244 16.244 0 0 0 4.701-2.59c.338-.248.671-.5 1.005-.76l.115-.09c.765-.59 1.526-1.198 2.308-1.757.124-.094.248-.18.376-.265l.492-.338c.051-.12.098-.235.141-.346a4.502 4.502 0 0 1-.24.162Z"/>
  <path fill="#6E929D" d="M82.112 61.105a64.435 64.435 0 0 1-5.535-5.855c-.026-.022 0-.06.043-.035.466.543 3.372 3.377 5.556 5.852.009.03-.034.064-.064.038Z"/>
  <path fill="#6E929D" d="M87.477 53.587c-1.945 4.458-6.237 8.976-6.237 8.976l-3.022-3.086c2.325-2.804 6.074-7.326 7.938-9.515 1.551.005 2.479.983 1.32 3.625Z"/>
  <path fill="#004359" d="M76.752 83.067c.428.427 26.15 1.282 26.283 1.124.368-.428-2.868-17.213-5.557-23.633-3.449-8.232-5.424-8.976-6.603-9.489-1.505-.64-5.519-.573-6.185-.303-.757.303-2.809 3.992-3.817 6.95-2.035 5.937-4.48 24.962-4.12 25.35Z"/>
  <path fill="#fff" d="M101.479 74.967c-1.282.906-2.522 1.932-3.804 2.877-.265.196-.53.389-.804.573l-.286.2a14.28 14.28 0 0 1-3.616 1.817c-.86.276-1.759.42-2.663.427a6.067 6.067 0 0 1-2.607-.64 10.625 10.625 0 0 1-2.236-1.493 26.594 26.594 0 0 1-1.949-1.85c-1.24-1.283-2.393-2.672-3.633-3.963l-.26-.265-.159-.162a36.09 36.09 0 0 0-1.36-1.282c0-.06.022-.12.03-.18a19.046 19.046 0 0 1 1.608 1.535l.24.248c1.23 1.303 2.372 2.688 3.598 3.987 1.227 1.3 2.565 2.565 4.16 3.326.798.392 1.674.6 2.564.611a8.676 8.676 0 0 0 2.624-.427 12.86 12.86 0 0 0 3.206-1.603l.26-.171c.398-.27.787-.551 1.172-.855 1.282-.966 2.522-2.03 3.847-2.958.038.116.051.171.068.248Zm-.483-2.18c-.855-.949-1.71-1.91-2.59-2.838a25.75 25.75 0 0 0-1.95-1.855 10.622 10.622 0 0 0-2.235-1.492 6.066 6.066 0 0 0-2.607-.64 8.805 8.805 0 0 0-2.663.427 16.241 16.241 0 0 0-4.702 2.59 46.452 46.452 0 0 0-1.12.85c-1.047.808-2.077 1.633-3.175 2.356-.12.076-.24.153-.364.226l-.124.073a8.759 8.759 0 0 1-1.662.803l-.039.257a8.777 8.777 0 0 0 1.86-.898c.041-.022.08-.046.12-.073.11-.064.221-.136.328-.205 1.12-.74 2.138-1.581 3.198-2.406l.115-.09c.32-.256.645-.508.97-.752a16.053 16.053 0 0 1 4.638-2.612 8.676 8.676 0 0 1 2.624-.427c.89.01 1.766.22 2.565.611 1.616.774 2.936 2.03 4.159 3.326.927.983 1.804 2.013 2.71 3.017-.022-.09-.039-.17-.056-.248Zm.68 3.073a15.567 15.567 0 0 1-4.411 2.445c-.128.044-.258.08-.39.111a8.386 8.386 0 0 1-2.236.32 6.034 6.034 0 0 1-2.563-.61c-1.612-.774-2.937-2.03-4.16-3.326-1.222-1.295-2.367-2.684-3.598-3.992a27.446 27.446 0 0 0-1.069-1.073 13.93 13.93 0 0 0-.876-.79 10.597 10.597 0 0 0-2.248-1.492 6.205 6.205 0 0 0-1.321-.462c0 .06-.022.12-.034.184a6.19 6.19 0 0 1 1.282.428c.802.383 1.551.87 2.227 1.449.295.243.581.495.855.76l.14.133c.321.308.638.624.945.944 1.24 1.283 2.394 2.663 3.634 3.958.616.652 1.266 1.27 1.949 1.851a10.43 10.43 0 0 0 2.235 1.496 6.12 6.12 0 0 0 2.607.637 7.69 7.69 0 0 0 1.5-.137c.15-.021.3-.055.428-.09.24-.055.479-.12.714-.192a15.512 15.512 0 0 0 4.411-2.376l-.021-.176Zm-5.13-17.469a1.952 1.952 0 0 1-.273 0 3.58 3.58 0 0 1-1.257-.316 3.276 3.276 0 0 1-.346-.175 1.876 1.876 0 0 1-.2-.116 11.304 11.304 0 0 1-1.59-1.252 14.21 14.21 0 0 0-2.138-1.658 6.562 6.562 0 0 0-2.565-.89 6.062 6.062 0 0 0-.68-.055h-.687l-.223.021a5.455 5.455 0 0 0-1.115.244 8.98 8.98 0 0 0-1.975.936 1.122 1.122 0 0 0-.12.073c-.11.064-.222.136-.329.205-.61.406-1.2.855-1.778 1.282-.051.124-.098.252-.145.376a32.698 32.698 0 0 1 2.043-1.483c.12-.077.24-.154.363-.226l.124-.073a8.693 8.693 0 0 1 1.885-.88c.209-.07.421-.123.637-.163.148-.03.298-.051.449-.064.065-.004.131-.004.197 0a6.51 6.51 0 0 1 1.316.051 6.574 6.574 0 0 1 2.475.855c.75.475 1.452 1.02 2.099 1.629.46.428.953.821 1.474 1.175.063.045.129.087.197.124.17.106.35.2.534.282.423.19.876.303 1.338.333.13.011.262.011.393 0-.055-.085-.102-.162-.102-.235Zm-.602-1.252c-.487.23-.979.444-1.475.641l-.278.103c-.52.196-1.053.36-1.594.491-.862.215-1.745.332-2.633.35a5.727 5.727 0 0 1-2.564-.568 10.41 10.41 0 0 1-2.223-1.449 14.524 14.524 0 0 1-.855-.76l-.141-.133-.526-.517-.158-.163-.26-.265a27.43 27.43 0 0 1-.766-.82c-.021.038-.038.077-.06.12.24.264.48.53.727.79l.24.248c.046.056.098.107.153.162.175.18.35.36.535.535l.14.132c.283.274.573.539.855.79a10.549 10.549 0 0 0 2.253 1.488c.82.406 1.723.613 2.637.607a11.137 11.137 0 0 0 2.68-.35c.591-.151 1.172-.34 1.74-.564l.282-.111c.457-.184.906-.39 1.35-.603a1.282 1.282 0 0 0-.08-.154h.02Zm-3.535-5.176a8.814 8.814 0 0 0-.581-.047h-.688a5.505 5.505 0 0 0-1.338.269c-.859.293-1.674.7-2.424 1.21-.27.18-.53.359-.79.551-.137.094-.274.197-.428.3-.68.508-1.334 1.038-1.996 1.56l-.115.09c-.321.256-.646.508-.97.751a23.046 23.046 0 0 1-2.377 1.595c0 .068-.039.137-.06.205a22.764 22.764 0 0 0 2.543-1.659c.338-.247.671-.5 1.004-.76l.116-.09c.765-.59 1.526-1.197 2.308-1.757.124-.094.248-.18.376-.265l.492-.337a9.9 9.9 0 0 1 2.372-1.176 5.32 5.32 0 0 1 1.282-.252c.44-.024.88-.006 1.317.055l.26.043a3.977 3.977 0 0 0-.324-.286h.021Z"/>
  <path fill="#ECD5D2" d="M92.097 54.805c2.565 3.313 10.613 13.374 15.776 13.939 3.42.371 14.285-.766 17.004-1.915 1.124-.475-2.308-10.776-3.655-10.61-2.496.309-11.938 2.925-13.396 2.63-1.282-.265-5.59-3.309-13.228-7.335-3.924-2.073-4.715.432-2.501 3.291Z"/>
  <path fill="#ECD5D2" d="M124.171 66.995c1.172.026 6.549-.337 8.023-.769 1.475-.432 5.621-1.996 5.403-3.159-.218-1.162-1.47-.803-1.47-.803s1.65-.936 1.32-2.086c-.329-1.15-2.252-.526-2.252-.526s1.62-1.086 1.214-2.21c-.406-1.124-2.244-.17-2.244-.17s1.53-.924.803-1.71c-.855-.94-3.5 1.077-5.163 1.436-.376.081-7.771 1.107-7.771 1.107l2.137 8.89Z"/>
  <path fill="#6E929D" d="M134.323 57.19c-1.936 1.483-3.039 1.795-5.429 2.009-.047 0-.051.077 0 .077 2.36 0 3.8-.192 5.506-1.992.085-.09.017-.162-.077-.094Zm1.021 2.342c-2.137 1.36-3.338 1.71-5.825 2.138-.035 0-.026.064 0 .064 2.47-.197 3.906-.428 5.868-2.069.099-.09.056-.197-.043-.133Zm.654 2.748c-2.171 1.168-3.462 1.608-5.928 1.71a.046.046 0 0 0-.033.045.046.046 0 0 0 .033.045c2.522.154 4.137-.38 5.958-1.71.124-.11.107-.162-.03-.09Z"/>
  <path fill="#ECD5D2" d="M121.222 56.22s2.509-1.74 3.783-2.257c1.274-.517 6.723-.714 6.839.462.141 1.517-2.992 2.248-4.561 2.406 0 0 .329 3.51-1.804 4.518-2.133 1.009-4.257-5.13-4.257-5.13Z"/>
  <path fill="#6E929D" d="M131.741 54.852c-.855 1.479-2.958 1.552-4.475 1.82a.147.147 0 0 0-.063.025.152.152 0 0 0-.044.05.148.148 0 0 0-.016.066c0 .023.006.045.016.065.039 1.479-.337 3.578-1.594 4.505a.032.032 0 0 0-.016.021.03.03 0 0 0 .003.026.036.036 0 0 0 .021.016.034.034 0 0 0 .026-.003c1.488-.808 2.026-2.842 1.876-4.462 1.565-.248 3.651-.428 4.275-2.138.008.01-.004 0-.009.01Z"/>
  <path fill="#004359" d="m102.629 55.254-6.412 6.864s-4.402-4.406-6.462-8.813c-2.06-4.407 1.906-4.223 4.86-2.637 2.953 1.585 8.014 4.586 8.014 4.586Z"/>
  <path fill="#fff" d="M101.248 54.433c-.855.402-1.71.855-2.539 1.283.046.034.095.064.146.09.833-.45 1.671-.898 2.526-1.283l-.133-.09Zm.488.287-.103.102a46.13 46.13 0 0 1-1.547 1.488c.077.02.155.035.235.042.491-.457.962-.936 1.432-1.414l.128-.133-.145-.085Zm-1.86 1.782c-.06.06-.12.111-.184.167a9.03 9.03 0 0 1-2.175 1.5l-.304.111c-.102.039-.21.051-.312.081a2.656 2.656 0 0 1-.64.026 3.584 3.584 0 0 1-1.257-.316 3.296 3.296 0 0 1-.347-.175l-.282.11c.171.107.35.202.534.283a3.9 3.9 0 0 0 1.338.333c.233.015.467.002.697-.038.111-.03.227-.047.338-.086l.325-.124a9.201 9.201 0 0 0 2.214-1.56l.282-.26a1.903 1.903 0 0 1-.235-.052h.008Z"/>
  <path fill="#fff" d="m101.753 56.194-.317.342-.171.043a2.728 2.728 0 0 1-.696.034 3.606 3.606 0 0 1-.701-.111 4.156 4.156 0 0 1-.637-.222 5.501 5.501 0 0 1-.628-.334l-.146-.094c-.503-.35-.981-.734-1.432-1.15a13.41 13.41 0 0 0-2.098-1.628 6.476 6.476 0 0 0-2.475-.855 6.795 6.795 0 0 0-1.317-.055 5.32 5.32 0 0 0-1.282.252 5.83 5.83 0 0 0-.385.132 2.429 2.429 0 0 1-.068-.214 4.61 4.61 0 0 1 .385-.136 5.504 5.504 0 0 1 1.337-.27h.689c.226 0 .453.03.68.056a6.65 6.65 0 0 1 2.564.893 13.94 13.94 0 0 1 2.137 1.659c.47.44.974.842 1.509 1.2a.874.874 0 0 0 .145.09 3.922 3.922 0 0 0 1.466.54c.089.016.179.026.269.03.215.015.43.005.642-.03.102-.026.209-.044.312-.078l.218-.094Z"/>
  <path fill="#fff" d="m98.603 55.946-1.013.543c-.958.505-1.933.996-2.941 1.406l-.282.111c-.431.166-.87.309-1.317.428-.047-.056-.09-.115-.132-.171.424-.11.842-.242 1.252-.398a12.349 12.349 0 0 1-1.475-1.175 15.19 15.19 0 0 0-1.897-1.505 22.476 22.476 0 0 1-.252-.427l.175.098a14.21 14.21 0 0 1 2.137 1.659 11.31 11.31 0 0 0 1.59 1.252 32.713 32.713 0 0 0 3.065-1.432l.944-.495.146.106Z"/>
  <path fill="#6E929D" d="M95.328 60.682a64.745 64.745 0 0 0 5.386-5.984c.026-.025-.021-.06-.043-.03-.427.552-3.282 3.458-5.39 5.984-.017.026.022.077.047.03Z"/>
  <path fill="#6E929D" d="M97.282 60.994c-.317.406-.637.804-.975 1.189l-.064.077-.073-.077a39.587 39.587 0 0 1-2.53-2.821c-.402-.488-.79-.983-1.154-1.5a13.316 13.316 0 0 1-1.022-1.6c.774.997 1.603 1.941 2.415 2.903l1.223 1.44 1.205 1.45h-.137c.377-.364.736-.714 1.112-1.06Z"/>
  <path fill="#6E929D" d="M91.742 57.566c.25.115.485.259.701.428.224.151.433.323.624.513a1.987 1.987 0 0 1-.748-.342 2.243 2.243 0 0 1-.577-.599Z"/>
  <path fill="#ECD5D2" d="M85.835 54.916c1.41.488 4.12-1.47 5.283-3.163.081-.115 0-1.431.03-3.03 0-.97.039-2.052.141-3.04.022-.2-6.33.856-6.33.856.228 1.268.3 2.56.214 3.847a1.928 1.928 0 0 1-.086.397.488.488 0 0 1 0 .069c-.218.765-.62 3.59.748 4.064Z"/>
  <path fill="#6E929D" d="M90.904 45.67c-.453 1.638-1.897 5.557-5.201 5.292a3.728 3.728 0 0 1-.629-.098.27.27 0 0 1 0-.068 2.81 2.81 0 0 0 .082-.398 15.673 15.673 0 0 0-.21-3.847s4.595-.782 5.959-.88Z"/>
  <path fill="#ECD5D2" d="M91.99 37.776c.748 2.176-.18 8.549-1.71 10.04-2.192 2.138-5.898 2.467-7.74-.192-1.787-2.564-.428-10.895 1.282-12.246 2.513-2.004 7.057-.816 8.168 2.398Z"/>
  <path fill="#6E929D" d="M86.925 41.717s.03.026.026.043c-.073.428-.086.936.282 1.133 0 0 0 .025 0 0-.475-.116-.449-.778-.308-1.176Z"/>
  <path fill="#6E929D" d="M87.37 41.324c.7.043.56 1.44-.09 1.398-.65-.043-.496-1.436.09-1.398Zm-2.933.141s-.038 0-.038.034c-.03.428-.137.928-.543 1.03v.026c.483-.017.62-.675.581-1.09Z"/>
  <path fill="#6E929D" d="M84.096 40.974c-.693-.124-.89 1.282-.248 1.38.64.099.825-1.286.248-1.38Zm3.902-.236c-.188-.068-.346-.158-.526-.243a.94.94 0 0 1-.483-.355.29.29 0 0 1 .086-.35.727.727 0 0 1 .743 0c.25.097.454.285.573.525a.317.317 0 0 1-.393.423Zm-4.373-.526c.191-.017.381-.046.569-.085a.945.945 0 0 0 .564-.2.295.295 0 0 0 .021-.364.74.74 0 0 0-.718-.21 1.085 1.085 0 0 0-.696.342.315.315 0 0 0 .26.517Zm3.121 5.558c-.116.093-.236.221-.394.217a1.168 1.168 0 0 1-.453-.154h-.021a.577.577 0 0 0 .526.291.462.462 0 0 0 .38-.346c.009-.009-.026-.009-.038-.009Zm-1.702-.937c.17.25.404.453.676.586.148.07.314.09.474.06.355-.073.38-.39.334-.667a1.887 1.887 0 0 0-.133-.428c-.39.29-.864.447-1.35.45Z"/>
  <path fill="#FF9BBC" d="M85.72 45.419c.148.07.314.09.474.06.355-.073.38-.39.334-.667a.812.812 0 0 0-.808.607Z"/>
  <path fill="#6E929D" d="M92.7 42.692c-1.71.175-2.659-1.834-2.308-3.484 0 0-4.523.74-4.847-2.898a3.582 3.582 0 0 1-2.903 1.71l-.466 1.36c-.47-.12-1.008-1.428.099-2.501a4.355 4.355 0 0 1 1.329-2.95 2.483 2.483 0 0 1 2.659-.457 3.765 3.765 0 0 1 2.718-.757 3.201 3.201 0 0 1 2.415 1.667s2.261.364 2.693 1.95a3.302 3.302 0 0 1-.364 2.68s.586.61.343 1.983c-.146.893-.843 1.646-1.368 1.697Z"/>
  <path fill="#6E929D" d="M85.647 35.981a4.115 4.115 0 0 0 .188 1.744c.19.55.581 1.008 1.094 1.282a3.68 3.68 0 0 0 1.684.372c.295-.021.595 0 .89-.051a11.8 11.8 0 0 1 .884-.116c-.286.077-.581.146-.855.218-.273.073-.598.073-.897.111a3.723 3.723 0 0 1-1.791-.346 2.414 2.414 0 0 1-1.141-1.41 3.62 3.62 0 0 1-.056-1.804Z"/>
  <path fill="#6E929D" d="M83.369 38.16a4.73 4.73 0 0 0 1.355-.786c.197-.165.371-.356.517-.568a3.73 3.73 0 0 0 .36-.701c-.02.273-.095.54-.223.782a2.137 2.137 0 0 1-.517.65 2.65 2.65 0 0 1-.701.427 2.525 2.525 0 0 1-.791.197Z"/>
  <path fill="#ECD5D2" d="M90.819 43.004s1.402-2.082 2.347-1.582c.944.5-.094 3.492-1.18 3.92a1.119 1.119 0 0 1-1.505-.577l.338-1.761Z"/>
  <path fill="#6E929D" d="M92.845 42.273v.03c-.765.325-1.154 1.043-1.428 1.782a.616.616 0 0 1 .92-.18v.04a.684.684 0 0 0-.749.251 3.25 3.25 0 0 0-.354.616c-.035.068-.158.034-.133-.043-.043-1 .697-2.38 1.744-2.496Zm43.376 17.477c-.744 3.847-.983 8.588-3.463 11.806-1.944 2.518-5.056 3.783-8.121 4.343-6.698 1.227-15.259-.458-18.063-7.489-1.116-2.808-.205-7.877 3.043-9.036 1.667-.59 3.42-.393 5.172-.427a7.16 7.16 0 0 0 5.608-2.663c2.877-3.42 3.176-6.386 4.561-10.515a3.09 3.09 0 0 1 1.556-1.97 8.287 8.287 0 0 1 5.509-.594c1.821.645 3.202 2.8 4.394 4.218 1.193 1.42 1.603 2.736 1.283 4.6-.453 2.568-.975 5.146-1.479 7.727Z"/>
  <path fill="#6E929D" d="M136.259 61.657c.453-3.57.834-7.142 1.24-10.716 0 0-.034-.03-.034 0-.428 2.932-.877 5.856-1.257 8.792-.381 2.937-.56 5.856-1.193 8.69-1.397 6.365-8.548 7.382-13.848 5.779-.24-.073-.33.32-.082.389 4.702 1.26 10.755.996 13.417-3.813 1.466-2.628 1.39-6.202 1.757-9.121ZM125.36 45.492a.064.064 0 0 0-.02-.03.058.058 0 0 0-.034-.01.053.053 0 0 0-.033.01.052.052 0 0 0-.02.03c-.992 3.445-1.83 7.556-4.544 10.117a9.067 9.067 0 0 1-4.834 2.368c-1.436.218-2.838-.069-4.274-.124-5.604-.235-7.386 6.98-4.172 10.728.064.077.205-.034.141-.115-2.214-2.838-2.167-7.018.761-9.404 2.351-1.906 5.612-.337 8.356-1.013 5.693-1.41 7.566-7.471 8.673-12.557Z"/>
  <path fill="#D39E97" d="M131.168 62.328c6.412 8.429 11.571 17.952 10.455 21.013-1.496 4.09-9.035 11.113-13.284 14.391-1.248.966-8.549-8.903-7.224-9.938 1.612-1.243 10.053-7.565 10.173-7.736.248-.36-2.513-12.225-3.244-15.041-1.197-4.715.299-6.425 3.124-2.689Z"/>
  <path fill="#D39E97" d="M121.727 102.331c2.491-.82 6.928-4.496 7.659-5.796.731-1.3-5.27-9.048-6.796-9.048-1.526 0-9.703 3.419-11.165 5.663-1.461 2.244 7.72 10.036 10.302 9.181Z"/>
  <path fill="#D39E97" d="M114.366 90.15c1.355.307.214 1.71.214 1.71s2.137-1.65 3.419-.792c1.283.86-.213 2.5-.312 2.62.111-.085 2.112-1.547 3.304-.55 1.193.995-.496 2.457-.607 2.564.133-.047 1.902-.65 2.633.312 1.257 1.654-3.222 3.317-3.847 4.873 0 0 2.518 1.38 2.565 1.436 0 0-4.227 1.667-6.279.692a1.457 1.457 0 0 1-.816-1.628s-1.304.688-2.266-.064c-.495-.389-.312-1.526-.312-1.526a1.815 1.815 0 0 1-1.88-.214c-.65-.577-.368-1.624-.368-1.624s-1.248 0-1.71-.795c-.983-1.612 3.36-7.677 6.262-7.014Z"/>
  <path fill="#6E929D" d="M109.827 97.792c0 .021-.047 0-.034 0a12.948 12.948 0 0 1 4.838-5.984c.073-.043.175.051.107.115a26.456 26.456 0 0 0-4.911 5.869Zm2.193 2.034c0 .026-.056 0-.043-.025a12.12 12.12 0 0 1 5.685-6.198c.094-.043.218 0 .115.068-1.705.975-4.526 4.082-5.757 6.155Zm8.565-4.141c-2.5 1.316-4.334 3.3-5.92 5.608-.021.029-.059 0-.051-.03.47-1.343 1.633-2.71 2.629-3.693a7.474 7.474 0 0 1 3.3-1.97c.047-.018.098.059.042.085Z"/>
  <path fill="#6E929D" d="M114.58 91.88a8.376 8.376 0 0 1 1.381-.71c.46-.207.968-.288 1.47-.234a.931.931 0 0 1 .581.337c.143.185.237.403.274.633a1.687 1.687 0 0 1-.462 1.282l-.756.855 1.004-.538a4.728 4.728 0 0 1 1.428-.5 1.676 1.676 0 0 1 1.337.26.96.96 0 0 1 .317 1.159 2.895 2.895 0 0 1-.915 1.115l-1.064.855 1.282-.427a4.306 4.306 0 0 1 1.094-.231c.353-.04.71.023 1.026.184a.85.85 0 0 1 .428.79 1.878 1.878 0 0 1-.492.94 15.01 15.01 0 0 1-1.731 1.582c-.299.252-.607.509-.898.778-.309.253-.561.57-.739.928.214-.334.489-.624.812-.855.308-.244.628-.47.949-.701a13.022 13.022 0 0 0 1.851-1.522 2.22 2.22 0 0 0 .624-1.111 1.215 1.215 0 0 0-.599-1.193 2.196 2.196 0 0 0-1.282-.26 4.784 4.784 0 0 0-1.222.235l.209.397a3.352 3.352 0 0 0 1.094-1.312c.126-.295.146-.624.056-.932a1.542 1.542 0 0 0-.53-.752 2.108 2.108 0 0 0-1.71-.33 5.007 5.007 0 0 0-1.56.573l.252.317a1.983 1.983 0 0 0 .487-1.603 1.705 1.705 0 0 0-.376-.77 1.239 1.239 0 0 0-.761-.397 2.898 2.898 0 0 0-1.56.355 6.912 6.912 0 0 0-1.299.803Z"/>
  <path fill="#D39E97" d="M121.094 87.824s-11.092-.953-9.339 3.565c.521 1.342 4.274 6.232 5.257 5.501 1.282-.945.107-3.278-.855-4.625 0 0 3.727.855 5.099-1.564a2.753 2.753 0 0 0-.162-2.877Z"/>
  <path fill="#6E929D" d="M111.635 91.004c.14.551.362 1.079.658 1.564.28.495.594.97.94 1.42a19.34 19.34 0 0 0 2.262 2.564c.22.208.469.384.739.522.155.08.326.124.5.128a.76.76 0 0 0 .282-.039.982.982 0 0 0 .252-.128c.274-.212.463-.515.53-.855.054-.306.054-.62 0-.927a5.103 5.103 0 0 0-.589-1.654 11.294 11.294 0 0 0-.924-1.454l-.209.308c.43.082.866.122 1.304.12.43.005.86-.035 1.282-.12a4.45 4.45 0 0 0 1.214-.427c.379-.204.714-.48.987-.812a3.851 3.851 0 0 1-1.047.688c-.382.162-.785.27-1.197.32a5.974 5.974 0 0 1-1.235.047 6.64 6.64 0 0 1-1.214-.184l-.492-.123.282.427c.317.455.603.93.855 1.423.254.477.43.99.522 1.522.068.5 0 1.064-.359 1.316-.359.253-.808-.094-1.21-.427-.402-.333-.803-.757-1.192-1.158-.389-.402-.77-.817-1.129-1.244a10.725 10.725 0 0 1-1.812-2.817Z"/>
  <path fill="#A6A6A6" d="m122.192 86.089 8.122 11.241a8.038 8.038 0 0 0 3.718-2.317c1.496-1.748 7.797-8.548 8.121-12.173.325-3.624-5.71-14.143-9.403-19.234-3.693-5.09-6.194-4.48-4.817 2.026 1.376 6.505 3.047 13.883 2.851 14.105-.197.222-6.202 3.394-7.288 4.334a3.846 3.846 0 0 0-1.304 2.018Z"/>
  <path fill="#C7C7C7" d="M131.557 73.441a3.377 3.377 0 0 0-.901-.21c.249.184.524.328.816.428.291.111.596.182.906.21a3.202 3.202 0 0 0-.821-.428Zm1.283 20.034a3.219 3.219 0 0 0-.902-.205c.251.18.526.323.816.427.291.112.596.181.906.205a3.352 3.352 0 0 0-.829-.427h.009Zm2.906-8.66a3.215 3.215 0 0 0-.906-.205c.252.181.528.325.821.427.291.112.596.182.906.21a3.319 3.319 0 0 0-.829-.432h.008Zm-8.617 0a3.215 3.215 0 0 0-.902-.205c.25.181.525.325.817.427.291.112.596.182.906.21a3.227 3.227 0 0 0-.829-.432h.008Zm4.394-3.659a3.175 3.175 0 0 0-.205.902 3.561 3.561 0 0 0 .637-1.71 3.37 3.37 0 0 0-.44.808h.008Zm4.044-10.485c-.112.29-.181.596-.205.907.179-.253.323-.53.427-.821a3.22 3.22 0 0 0 .205-.902c-.182.25-.329.525-.436.816h.009Zm-6.091-10.258c-.285.127-.55.294-.787.496a3.26 3.26 0 0 0 1.056-.363 1.908 1.908 0 0 0-.286-.142l.017.01Zm9.185 20.666a3.255 3.255 0 0 0-.786.492 3.18 3.18 0 0 0 .885-.274 3.22 3.22 0 0 0 .786-.491 3.27 3.27 0 0 0-.893.265l.008.008Zm-10.579 9.733c-.202.09-.396.2-.577.33l.492-.035.188-.081c.284-.126.549-.292.786-.492-.31.047-.612.138-.897.27l.008.008Zm1.377-21.64a3.44 3.44 0 0 0-.701.427l-.086.068h.099a3.618 3.618 0 0 0 1.573-.748 3.266 3.266 0 0 0-.885.252Zm2.752 18.64a3.227 3.227 0 0 0-.495-.787c.049.307.143.605.277.885.124.285.29.55.492.786a3.3 3.3 0 0 0-.269-.885h-.005Zm6.596 1.427a3.309 3.309 0 0 0-.492-.782c.049.306.141.604.274.885 0 .038.038.076.059.115.056-.073.107-.145.163-.214l-.004-.004Zm-3.146-12.481a3.415 3.415 0 0 0-.492-.782c.049.306.141.604.274.885.125.284.29.549.491.786a3.256 3.256 0 0 0-.269-.889h-.004Zm-3.18-11.468a3.22 3.22 0 0 0-.492-.786c.048.306.14.604.274.884.126.284.292.549.491.787a3.117 3.117 0 0 0-.269-.885h-.004Zm.303 29.775c-1.282-1.932-.855-1.398-2.18-3.317-.632-.936-4.821-7.1-5.595-7.852 0 0-.055 0-.047.034.428.988 4.749 7.061 5.407 7.985 1.342 1.885.983 1.329 2.351 3.197.026.034.09-.009.064-.047Z"/>
  <path fill="#D39E97" d="M102.8 182.846c.919.295 27.163-.043 28.155-.692.38-.24.555-4.065.632-8.698v-.146c0-.953.03-1.936.03-2.932v-.427a738.08 738.08 0 0 0-.068-13.614l-17.555.175.526 13.486.021.534.107 2.795v.287s-9.98 4.659-10.989 5.467c-1.009.807-1.782 3.466-.859 3.765Z"/>
  <path fill="#004359" d="M110.686 175.426c.068 0 .103-.043.107-.06a1.013 1.013 0 0 0-.107.06Zm-7.886 7.416c.919.299 27.163-.038 28.155-.688.337-.214.513-3.261.602-7.185-4.808 1-23.444 4.77-23.957 3.18-.197-.628 1.393-1.71 2.402-2.321-2.753 1.312-5.804 2.812-6.343 3.253-1.004.825-1.782 3.466-.859 3.761Z"/>
  <path fill="#37474F" d="M136.939 80.754s-3.937 44.346-4.582 47.732c-.15.769-.24 4.962-.3 10.348-.136 11.758-.055 32.959-.055 32.959h-18.499s.547-36.734 1.368-43.496c.82-6.761 6.039-47.543 6.039-47.543h16.029Z"/>
  <path fill="#6E929D" d="M114.336 168.57c2.89-.06 2.06-.085 4.946-.111 1.414 0 10.685-.094 12.019.124.026 0 .026.055 0 .06-1.321.218-10.605.136-12.019.124-2.886-.03-2.056-.052-4.946-.111-.051-.005-.051-.086 0-.086Zm14.152-21c.018-2.684.037-5.367.06-8.048 0-2.599 0-5.202.137-7.801.252-5.257 1.317-10.425 2.077-15.622.761-5.198 1.39-10.421 1.962-15.644.646-5.86 1.21-11.729 1.813-17.597 0-.039.068-.039.064 0-.855 10.471-1.843 20.944-3.296 31.351a297.05 297.05 0 0 1-1.179 7.754c-.428 2.612-.855 5.223-1.069 7.865-.214 2.641-.235 5.176-.261 7.766-.025 2.682-.053 5.363-.081 8.044-.056 5.959-.115 15.127-.171 21.081a.09.09 0 0 1-.026.064.09.09 0 0 1-.153-.064c.042-5.313.081-13.836.123-19.149Z"/>
  <path fill="#6E929D" d="M140.841 80.754s-7.839 44.346-8.484 47.732c-.15.769-.24 4.962-.299 10.348l-8.823-58.08h17.606Z"/>
  <path fill="#D39E97" d="M146.556 184.338c.957-.15 24.218-12.31 24.791-13.332.231-.389-1.342-3.881-3.364-8.044l-.064-.132c-.427-.855-8.724-14.866-8.724-14.866l-14.306 8.399 7.933 14.143.141.253s-6.839 8.634-7.356 9.83c-.517 1.197-.013 3.903.949 3.749Z"/>
  <path fill="#004359" d="M146.556 184.338c.953-.15 24.214-12.306 24.791-13.336.201-.325-.919-2.928-2.509-6.27-3.334 2.526-19.435 14.614-20.611 13.357-.248-.265-.06-.893.265-1.565-1.41 1.864-2.667 3.578-2.885 4.065-.513 1.189-.013 3.903.949 3.749Z"/>
  <path fill="#37474F" d="m150.775 169.989 16.952-10.476s-19.611-28.061-19.705-30.553c-.137-3.71-1.915-19.004-3.419-31.386 0 0 2.829-6.707-2.467-16.837H120.91s1.423 9.639 3.847 15.751a28.508 28.508 0 0 1 4.702 2.137s2.115 27.612 2.197 31.057c.184 6.826 19.119 40.307 19.119 40.307Z"/>
  <path fill="#6E929D" d="M149.736 166.074c2.449-1.535 1.71-1.129 4.185-2.633 1.205-.74 9.134-5.557 10.378-6.065a.03.03 0 0 1 .021-.001.026.026 0 0 1 .016.013.03.03 0 0 1 .004.021.037.037 0 0 1-.011.018c-1.022.855-9.028 5.557-10.259 6.279-2.492 1.457-1.791 1.013-4.3 2.441-.038.029-.081-.043-.034-.073ZM123.962 96.07a35.112 35.112 0 0 1 5.527 2.564.06.06 0 0 1 .025.035.056.056 0 0 1-.003.044.06.06 0 0 1-.03.032.066.066 0 0 1-.044.004c-1.859-.799-3.761-1.564-5.578-2.466a.126.126 0 0 1-.027-.145.122.122 0 0 1 .13-.069Zm2.603-3.078a41.662 41.662 0 0 1-.427-3.343 30.074 30.074 0 0 1 .068-6.27.052.052 0 0 1 .02-.03.056.056 0 0 1 .087.03c-.05 2.895.118 5.79.504 8.66.21 1.376.902 3.453-.538 3.663-1.441.21-2.42-3.261-2.599-4.21a31.776 31.776 0 0 1-.312-8.207c0-.064.12-.077.12 0a61.013 61.013 0 0 0 .312 6.223c.085.958.854 6.262 2.521 5.873.278-.064.428-.337.466-.756a6.634 6.634 0 0 0-.222-1.629"/>
  <path fill="#6E929D" d="M126.279 95.522c.147.358.271.725.372 1.099.107.288.161.594.158.902a.068.068 0 0 1-.017.033.065.065 0 0 1-.099-.008 3.223 3.223 0 0 1-.389-.88c-.124-.338-.26-.676-.376-1.022a.187.187 0 0 1 .253-.21.19.19 0 0 1 .098.086Zm13.374-13.447a19.833 19.833 0 0 1 1.667 3.47 21.536 21.536 0 0 1 1.026 3.724c.132.632.188 1.282.273 1.915.086.632.099 1.282.069 1.936a20.542 20.542 0 0 1-.406 3.847v-.043c.57 5.346 1.117 10.693 1.641 16.042.524 5.348 1.053 10.698 1.586 16.05l.047.5.025.252a.584.584 0 0 0 .039.218c.107.248.291.568.449.855.333.581.684 1.154 1.03 1.709a277.93 277.93 0 0 0 2.137 3.42l4.3 6.826 8.66 13.609c-2.992-4.471-5.984-8.941-8.899-13.455-1.467-2.253-2.937-4.505-4.377-6.775-.718-1.137-1.437-2.274-2.138-3.419-.35-.577-.705-1.15-1.042-1.736a7.86 7.86 0 0 1-.488-.932.914.914 0 0 1-.055-.269l-.026-.252-.051-.5a2958.766 2958.766 0 0 1-1.582-16.063 7562.19 7562.19 0 0 1-1.521-16.063v-.043a19.93 19.93 0 0 0 .427-3.795c.039-.641-.021-1.282-.038-1.915a12.035 12.035 0 0 0-.231-1.906 21.563 21.563 0 0 0-.945-3.719 19.562 19.562 0 0 0-1.577-3.488Z"/>
  <path fill="#A6A6A6" d="M145.039 86.529c-.77.355-25.219-.145-25.219-.145s-.812-.701-.517-2.368c.269-1.505 2.539-8.86 2.539-8.86a5.682 5.682 0 0 1-.881-4.459c1.086-4.313 5.873-9.882 6.309-10.258a4.935 4.935 0 0 1 5.181-.663c5.672 2.637 11.408 17.37 13.024 23.201a4.77 4.77 0 0 1-.436 3.552Z"/>
  <path fill="#C7C7C7" d="M131.557 73.441a3.377 3.377 0 0 0-.901-.21c.249.183.524.328.816.428.291.111.596.182.906.21a3.206 3.206 0 0 0-.821-.428Zm4.181 11.374a3.219 3.219 0 0 0-.906-.205c.251.181.527.325.82.427.291.112.596.182.906.21a3.309 3.309 0 0 0-.82-.432Zm-11.712-16.73a3.352 3.352 0 0 0-.752-.188.294.294 0 0 0 0 .073c.217.137.448.251.688.342.291.11.596.179.906.205a3.353 3.353 0 0 0-.842-.432Zm17.828 8.887a3.15 3.15 0 0 0-.902-.206c.252.182.528.326.821.428.289.112.593.182.902.21a3.173 3.173 0 0 0-.821-.432Zm-14.729 7.834a3.219 3.219 0 0 0-.902-.205c.25.181.525.325.816.428.291.111.596.181.907.21a3.243 3.243 0 0 0-.825-.424l.004-.009Zm11.451-18.165-.261-.107a3.15 3.15 0 0 0-.902-.205c.397.279.846.475 1.321.577a1.625 1.625 0 0 1-.162-.257l.004-.008Zm-3.561-4.877a3.095 3.095 0 0 0-.188.854 3.25 3.25 0 0 0 .368-.658l-.18-.196Zm7.472 23.666a3.33 3.33 0 0 0-.21.902c.184-.25.328-.526.428-.82a3.29 3.29 0 0 0 .209-.902 3.202 3.202 0 0 0-.414.82h-.013Zm-10.985-4.274a3.109 3.109 0 0 0-.205.902 3.571 3.571 0 0 0 .637-1.71c-.176.25-.317.521-.419.808h-.013Zm4.043-10.485c-.112.29-.181.596-.205.906.18-.252.324-.528.428-.82.111-.29.18-.593.205-.902a3.337 3.337 0 0 0-.415.816h-.013Zm-13.519 5.48a3.109 3.109 0 0 0-.205.902 3.3 3.3 0 0 0 .427-.82c.112-.29.181-.594.205-.903a3.35 3.35 0 0 0-.414.821h-.013Zm3.723-12.96a3.364 3.364 0 0 0-.21.906c.181-.251.325-.528.428-.82.11-.291.179-.596.205-.906-.173.253-.311.53-.411.82h-.012Zm3.701-2.787a3.257 3.257 0 0 0-.786.496 3.27 3.27 0 0 0 .889-.278 3.16 3.16 0 0 0 .782-.491c-.304.05-.598.142-.876.273h-.009Zm9.19 20.667c-.285.125-.549.29-.787.491.307-.047.605-.14.885-.273.285-.126.55-.291.787-.492-.302.05-.596.142-.872.274h-.013Zm-11.707-1.757a3.356 3.356 0 0 0-.787.492 3.589 3.589 0 0 0 1.671-.766c-.302.05-.595.142-.872.274h-.012Zm2.526-10.143a3.356 3.356 0 0 0-.787.492 3.19 3.19 0 0 0 .885-.274c.284-.125.549-.29.787-.492-.307.05-.605.141-.885.274Zm11.634 2.744a3.352 3.352 0 0 0-.491-.786 3.59 3.59 0 0 0 .765 1.67 3.26 3.26 0 0 0-.269-.884h-.005Zm-19.157 10.258a3.22 3.22 0 0 0-.492-.786c.106.614.37 1.19.766 1.671a3.241 3.241 0 0 0-.27-.897l-.004.013Zm4.043-8.12a3.35 3.35 0 0 0-.491-.787 3.2 3.2 0 0 0 .273.885c.126.284.291.549.492.786a3.276 3.276 0 0 0-.269-.919l-.005.034Zm18.44 7.62a3.413 3.413 0 0 0-.492-.782c.049.306.141.604.274.885.125.284.29.55.491.786a3.258 3.258 0 0 0-.273-.889Zm-8.763-4.91a3.409 3.409 0 0 0-.491-.783c.049.306.141.604.273.885.126.284.291.55.492.786a3.245 3.245 0 0 0-.265-.893l-.009.004Zm-3.18-11.469a3.22 3.22 0 0 0-.491-.786 3.2 3.2 0 0 0 .273.885c.127.283.293.548.492.786a3.141 3.141 0 0 0-.265-.89l-.009.005Z"/>
  <path fill="#6E929D" d="M130.258 75.292a25.13 25.13 0 0 0-3.676-.06c-.607.043-1.21.115-1.816.197-.3.043-.603.077-.902.107a3.954 3.954 0 0 1-.954 0c-.025 0-.034.038 0 .042.293.07.59.118.89.146.291.019.584.019.876 0 .615-.039 1.231-.107 1.851-.15 1.243-.09 2.487-.18 3.74-.18.047 0 .047-.098-.009-.102Zm2.778 1.608a26.893 26.893 0 0 0-2.953-.685 19.737 19.737 0 0 0-2.231-.23c-.244-.013-.535 0-.8 0-.025 0-.034.042 0 .042.252.026.5.09.748.133l.748.115 1.496.235c1 .145 1.996.304 2.992.483a.048.048 0 0 0 .034-.014.05.05 0 0 0 .013-.033.05.05 0 0 0-.013-.033.048.048 0 0 0-.034-.014Z"/>
  <path fill="#004359" d="M132.951 52.356s3.287-3.129 1.231-6.177c-1.902-2.829-4.608-3.303-6.296-2.808 0 0 3.812 1.086 4.702 3.42.889 2.334.363 5.565.363 5.565Z"/>
  <path fill="#D39E97" d="M131.831 60.588c-.107.428-2.176 3.044-4.069 2.894-.616-.051-.496-3.42-.496-3.42l-.047-.252-.671-3.517 4.189-2.505.602-.333s.12.978.261 2.192v.176c0 .064.022.132.026.196.021.18.047.368.064.552.017.183.03.277.038.427.009.15.026.295.039.427.096 1.052.117 2.109.064 3.163Z"/>
  <path fill="#6E929D" d="M131.596 55.639a7.195 7.195 0 0 1-4.381 4.163l-.671-3.518 4.188-2.505.603-.333s.124.979.261 2.193Z"/>
  <path fill="#D39E97" d="M121.722 50.215c-1.231 6.167 2.325 7.6 3.655 7.864 1.205.24 5.347.902 7.211-5.103 1.863-6.006-.616-8.549-3.352-9.224-2.735-.676-6.283.307-7.514 6.462Z"/>
  <path fill="#6E929D" d="M123.953 49.42c.15 0 .287 0 .428-.035a.74.74 0 0 0 .427-.12.226.226 0 0 0 .035-.273.566.566 0 0 0-.526-.197.795.795 0 0 0-.543.223.23.23 0 0 0-.049.263.23.23 0 0 0 .228.138Zm4.108.55c-.141-.033-.269-.093-.427-.14a.72.72 0 0 1-.389-.227.218.218 0 0 1 .034-.27.546.546 0 0 1 .56-.059.807.807 0 0 1 .47.35.243.243 0 0 1-.018.25.241.241 0 0 1-.23.098Zm-.979 1.1s.03.025.026.042c-.077.427-.094.915.269 1.116 0 0 0 .025 0 0-.483-.116-.436-.774-.295-1.159Z"/>
  <path fill="#6E929D" d="M127.527 50.685c.688.051.534 1.423-.103 1.376-.637-.047-.474-1.419.103-1.376Z"/>
  <path fill="#6E929D" d="M127.787 50.787c.112.09.214.24.36.27.145.03.307-.095.427-.218h.021c-.025.265-.154.521-.427.53-.274.008-.428-.248-.453-.518-.022-.034.034-.102.072-.064Zm-3.197-.184s-.038 0-.038.035c-.03.427-.137.91-.539 1.013v.021c.479-.017.616-.658.577-1.069Z"/>
  <path fill="#6E929D" d="M124.257 50.116c-.68-.12-.876 1.248-.248 1.36.628.11.816-1.253.248-1.36Z"/>
  <path fill="#6E929D" d="M123.958 50.167c-.12.056-.244.171-.376.163-.133-.009-.24-.175-.317-.33h-.021c-.047.261 0 .548.244.633.243.086.427-.12.525-.372.017-.038-.008-.115-.055-.094Zm.825 2.745s-.167.624-.206.923c0 .03.069.051.171.068a1.431 1.431 0 0 0 1.449-.359c.026-.025 0-.06-.038-.047-.414.215-.886.29-1.346.214 0-.085.32-1.06.273-1.069a2.561 2.561 0 0 0-.701.069c.312-1.308.825-2.565 1.116-3.868 0-.048-.06-.069-.077-.03a22.106 22.106 0 0 0-1.377 4.116c-.034.166.607.017.736-.017Z"/>
  <path fill="#6E929D" d="M124.791 53.797c.135.266.336.493.586.658a.796.796 0 0 0 .461.115c.351-.03.428-.337.428-.611a1.774 1.774 0 0 0-.077-.428 2.232 2.232 0 0 1-1.398.266Z"/>
  <path fill="#FF9BBC" d="M125.377 54.455a.796.796 0 0 0 .461.115c.351-.03.428-.338.428-.611a.809.809 0 0 0-.889.496Z"/>
  <path fill="#6E929D" d="M132.566 52.356c-.675-.064-2.385-1.988-2.338-5.27 0 0 .163 2.953.368 3.39.205.435-.953-1.082-.953-3.728-.852.57-1.78 1.014-2.757 1.32-1.283.313-2.026.275-2.112.185-.085-.09 1.77-.616 2.287-1.176 0 0-3.373 1.44-4.907 1.513-.18 0-.278-3.646 2.137-5.129 2.415-1.483 6.112.317 7.091 1.321 0 0 1.18.205 2.411 1.996s-.487 5.642-1.227 5.578Z"/>
  <path fill="#D39E97" d="M131.51 52.826s1.582-1.8 2.415-1.218c.834.581-.508 3.3-1.59 3.573a1.06 1.06 0 0 1-1.16-.346 1.07 1.07 0 0 1-.195-.38l.53-1.629Z"/>
  <path fill="#6E929D" d="M133.519 52.377v.03a2.687 2.687 0 0 0-1.568 1.518.596.596 0 0 1 .433-.236.592.592 0 0 1 .46.176s0 .043-.026.034a.648.648 0 0 0-.739.15 3.064 3.064 0 0 0-.406.538c-.043.06-.158 0-.124-.06.098-.944.966-2.167 1.97-2.15Z"/>
  <path fill="#D39E97" d="M134.678 65.196c7.924-1.71 20.268-6.411 21.102-9.198.547-1.825.389-10.57-.56-18.115-.188-1.5-11.763.573-11.404 2.137.71 3.104 1.864 11.627 1.765 12.208-.124.782-7.873 4.727-12.54 8.245-4.099 3.099-1.394 5.386 1.637 4.723Z"/>
  <path fill="#D39E97" d="M155.164 38.396c.12-1.282.201-7.236-.158-8.878-.359-1.641-1.709-6.291-2.992-6.146-1.282.145-.996 1.539-.996 1.539s-.889-1.873-2.167-1.608c-1.278.265-.756 2.415-.756 2.415s-1.052-1.855-2.308-1.5c-1.257.355-.368 2.432-.368 2.432s-.881-1.744-1.795-1.013c-1.099.855.893 3.903 1.15 5.74.059.428.581 8.55.581 8.55l9.809-1.53Z"/>
  <path fill="#6E929D" d="M145.333 26.47c1.458 2.228 1.71 3.454 1.757 6.079 0 .051.077.06.081 0 .189-2.565.094-4.16-1.731-6.164-.089-.09-.166-.021-.107.086Zm2.633-.927c1.313 2.45 1.599 3.779 1.847 6.523 0 .038.068.034.068 0 0-2.71-.149-4.275-1.782-6.566-.073-.106-.192-.068-.133.043Zm3.048-.491c1.103 2.462 1.479 3.902 1.376 6.6a.053.053 0 0 0 .05.037.05.05 0 0 0 .03-.011.05.05 0 0 0 .019-.027c.372-2.735-.086-4.543-1.398-6.634-.085-.132-.145-.12-.077.035Z"/>
  <path fill="#D39E97" d="M145.338 41.615s-2.313-2.407-3.095-3.689-1.94-7.13-.692-7.454c1.611-.428 2.945 2.83 3.394 4.505 0 0 3.727-.966 5.189 1.154 1.461 2.12-4.796 5.484-4.796 5.484Z"/>
  <path fill="#6E929D" d="M142.029 30.506c1.744.68 2.189 2.915 2.745 4.509a.153.153 0 0 0 .239.077c1.59-.3 3.919-.26 5.129.936a.04.04 0 0 0 .027.014.04.04 0 0 0 .029-.01.036.036 0 0 0 .013-.027.038.038 0 0 0-.009-.028c-1.137-1.462-3.419-1.684-5.129-1.244-.543-1.641-1.086-3.847-3.035-4.244l-.009.017Z"/>
  <path fill="#A6A6A6" d="m143.692 42.508 12.199-1.39s1.329 1.446 1.398 2.63c.068 1.184-.21 12.275-1.821 13.861-1.611 1.586-15.751 7.267-21.286 7.852-5.535.586-3.783-3.714-.534-5.66 3.248-1.944 11.322-7.599 11.562-7.975.239-.376-1.8-4.5-1.732-6.138.069-1.637.214-3.18.214-3.18Z"/>
  <path fill="#C7C7C7" d="M156.455 44.166c-2.086.167-1.491.082-3.573.274-1.022.098-7.715.735-8.647 1.043-.021 0 0 .051 0 .056.97.102 7.651-.689 8.668-.813 2.078-.248 1.479-.205 3.552-.483.047-.004.039-.08 0-.077Z"/>
  <path fill="#6E929D" d="M134.438 65.859a7 7 0 0 1 1.449-.676 6.764 6.764 0 0 1 1.543-.367 7.39 7.39 0 0 1-1.449.675 7.114 7.114 0 0 1-1.543.368Z"/>
  <path fill="#6E929D" d="M135.186 66.286a2.49 2.49 0 0 1 .509-.654c.099-.096.206-.183.32-.26.115-.082.24-.148.372-.197a4.42 4.42 0 0 1-.547.61 3.589 3.589 0 0 1-.654.5Z"/>
  <path fill="#C7C7C7" d="M131.993 64.504c.201.237.367.501.492.786l.077.184-.269-.035-.026-.05a3.193 3.193 0 0 1-.274-.885Zm2.851-1.894c.024-.31.093-.613.206-.902h-.005c.105-.292.25-.569.432-.82a3.249 3.249 0 0 1-.205.901 3.35 3.35 0 0 1-.428.82Zm10.455-13.327c.201.237.367.502.492.786h-.004c.134.28.228.578.277.885a3.6 3.6 0 0 1-.765-1.671Zm5.583-6.921c.199.239.364.503.491.787h-.004c.134.28.227.578.278.885a3.22 3.22 0 0 1-.492-.787 3.158 3.158 0 0 1-.273-.885Zm4.103 6.78c.201.237.366.502.491.786h-.004c.135.28.228.578.278.885a3.591 3.591 0 0 1-.765-1.671Zm-2.684 7.42c.201.237.366.502.491.786h-.004c.135.28.228.578.278.885a3.58 3.58 0 0 1-.765-1.671Z"/>
  <path fill="#AD594E" d="M41.51 60.815a37.116 37.116 0 0 1-.53-2.992 27.767 27.767 0 0 1-.598-4.326c-.132-2.393-.132-5.3 1.958-6.903.991-.7 2.12-1.18 3.312-1.41 1.223-.278 2.544-.428 3.732.047.47.184.89.477 1.227.855a7.98 7.98 0 0 1 2.453.906c.936.359 1.611 1.282 2.069 2.137a13.159 13.159 0 0 1 1.137 3.266 8.075 8.075 0 0 1 .256 3.162c-.186.929-.45 1.84-.79 2.723a9.894 9.894 0 0 0-.676 3.347.03.03 0 0 1-.05.021.03.03 0 0 1-.01-.021c-.094-1.846.787-3.548 1.201-5.309a7.237 7.237 0 0 0 .069-3.043 17.727 17.727 0 0 0-.958-3.42 5.873 5.873 0 0 0-1.812-2.564l.043.034c.97.834 1.449 2.073 1.803 3.266.425 1.327.653 2.71.676 4.103a13.45 13.45 0 0 1-.667 3.719 14.338 14.338 0 0 0-.752 3.714 11.05 11.05 0 0 0 .855 3.877 15.815 15.815 0 0 1 1.038 3.706 5.577 5.577 0 0 1-.692 3.35c-1.077 1.881-3.62 3.48-5.736 2.27a7.142 7.142 0 0 1-1.415-1.14 17.407 17.407 0 0 1-1.312-1.441 21.608 21.608 0 0 1-2.291-3.42 41.334 41.334 0 0 1-3.044-7.62 46.526 46.526 0 0 1-.555-1.946 40.791 40.791 0 0 0 1.132 4.416c.855 2.611 1.894 5.249 3.471 7.505.408.586.852 1.145 1.33 1.676.517.581 1.085 1.098 1.64 1.641a.035.035 0 0 1 .007.05.035.035 0 0 1-.049.006 14.104 14.104 0 0 1-2.736-2.834 19.333 19.333 0 0 1-2.081-3.505 37.184 37.184 0 0 1-2.654-7.903Z"/>
  <path fill="#F7A9A0" d="M52.461 65.602c2.668 5.454 5.873 12.126 8.575 18.623 1.184 2.839 4.103 8.763 4.834 10.297.962 2.026-9.788 4.68-10.297 3.227-.333-.944-1.735-6.488-2.808-11.198-1.38-6.053-3.71-14.024-3.445-19.662.235-5.001 2.107-3.403 3.141-1.287Z"/>
  <path fill="#F7A9A0" d="M59.253 101.814c-.449-.479-.705-.248-.602.915.102 1.162 1.483 5.68-.133 6.026-1.616.347-3.48-6.048-3.496-7.997a31.25 31.25 0 0 1 .632-5.108c.616 1.176 2.368 3.877 3.6 6.164Z"/>
  <path fill="#F7A9A0" d="M64.613 92c1.71 3.42 3.924 7.583 3.552 11.772a2.089 2.089 0 0 1-.526 1.261c-.132 1.88-1.06 2.38-1.06 2.38-.658 1.71-1.68 2.099-1.68 2.099s-.179 2.206-1.53 2.321c-1.513.133-.966-2.992-1.71-4.898-1.709-4.36-5.372-10.075-5.983-11.285L64.613 92Z"/>
  <path fill="#6E929D" d="M63.066 101.104a30.275 30.275 0 0 1 1.282 3.903c.28 1.475.45 2.97.509 4.471a.044.044 0 0 0 .014.019.043.043 0 0 0 .022.007.043.043 0 0 0 .022-.007.043.043 0 0 0 .014-.019 15.9 15.9 0 0 0-1.812-8.399c-.025-.06-.077-.043-.051.025Zm2.479-1.418c.397 1.282 1.081 3.543.992 7.727h.025a14.319 14.319 0 0 0-.957-7.753c-.03-.073-.086-.06-.06.026Zm1.346-.74c.525 1.982.774 4.028.74 6.078h.025c.227-2.731 0-3.749-.692-6.108-.021-.081-.094-.056-.073.03ZM58.458 74.69l-8.19 2.077s-1.363-6.412-1.478-10.383c-.116-3.97 1.35-5.347 4.552-.504a84.22 84.22 0 0 1 5.116 8.81Z"/>
  <path fill="#37474F" d="m56.992 75.065-6.723 1.71s-1.364-6.411-1.48-10.387c-.068-2.226.368-3.641 1.33-3.586 1.547 2.706 5.146 8.964 6.873 12.263Z"/>
  <path fill="#455A64" d="M50.384 75.262a73.038 73.038 0 0 1 3.39-1.107c.564-.171 1.124-.346 1.71-.504.585-.159 1.179-.282 1.76-.428a.034.034 0 0 1 .038.023.034.034 0 0 1-.016.041c-.556.18-1.099.393-1.659.577-.56.184-1.154.35-1.73.526a69.887 69.887 0 0 1-3.455.945c-.038-.026-.08-.073-.038-.073Z"/>
  <path fill="#F7A9A0" d="M68.644 180.782c-.936.128-26.026-4.65-26.868-5.441-.32-.295.162-3.992.854-8.442l.026-.137c.145-.919 3.291-16.178 3.291-16.178l16.414 3.077-3.484 16.003-.055.274s8.783 6.125 9.617 7.091c.833.966 1.137 3.629.205 3.753Z"/>
  <path fill="#fff" d="M68.644 180.782c-.936.124-26.026-4.651-26.868-5.441-.325-.295.162-3.993.854-8.442l.026-.137c.026-.175.218-1.133.428-2.111l16.242 2.992-.428 2.034-.055.274s8.784 6.125 9.617 7.087c.834.961 1.111 3.62.184 3.744Z"/>
  <path fill="#004359" d="M68.879 180.919c-.949.128-26.535-4.676-27.394-5.476-.33-.303.154-4.069.855-8.604l16.503 3.048s8.976 6.223 9.83 7.202c.856.979 1.16 3.697.206 3.83Z"/>
  <path fill="#6E929D" d="M68.708 179.824c-4.274-.91-21.577-4.18-25.868-4.757-.034 0-.039 0 0 .026 4.21.996 21.542 4.129 25.855 4.804.09.013.103-.051.013-.073Zm-1.5-3.966a3.505 3.505 0 0 0-2.766.568 3.39 3.39 0 0 0-1.389 2.108c0 .025.043.038.051 0a4.057 4.057 0 0 1 4.09-2.633c.035.017.048-.035.014-.043Zm-6.767-5.232c-1.71-.346-3.817-.111-5.15 1.09-.051.047 0 .12.073.103a24.26 24.26 0 0 1 5.065-.975.114.114 0 0 0 .067-.034.113.113 0 0 0 .008-.142.109.109 0 0 0-.063-.042Zm1.227.765c-1.71-.346-3.817-.111-5.129 1.09-.051.047 0 .12.073.103a24.194 24.194 0 0 1 5.065-.975.11.11 0 0 0 .063-.041.11.11 0 0 0-.006-.141.113.113 0 0 0-.066-.036Zm1.227.77c-1.71-.347-3.817-.116-5.13 1.085-.05.047 0 .12.074.103a24.257 24.257 0 0 1 5.065-.975.107.107 0 1 0-.008-.213Zm1.231.765c-1.71-.346-3.817-.116-5.13 1.09-.055.042 0 .115.07.102a24.298 24.298 0 0 1 5.047-.974.11.11 0 0 0 .088-.182.108.108 0 0 0-.075-.036Z"/>
  <path fill="#fff" d="M44.7 171.199c-1.928-.359-2.484 2.637-.556 2.992 1.927.355 2.487-2.637.555-2.992Z"/>
  <path fill="#6E929D" d="M63.156 166.395c-.736-.885-1.962-.385-2.638.26a9.22 9.22 0 0 0-2.385 4.099.047.047 0 0 0 .009.042.04.04 0 0 0 .017.014.052.052 0 0 0 .021.004.216.216 0 0 0 .092.17.219.219 0 0 0 .19.027c1.381-.616 2.933-1.103 4.082-2.137.663-.586 1.304-1.642.612-2.479Zm-2.791 3.252c-.672.321-1.355.603-2.018.949.443-.812.926-1.601 1.45-2.363.261-.365.547-.712.854-1.039.479-.496 2.436-1.616 2.257.286-.128 1.047-1.744 1.787-2.543 2.167Z"/>
  <path fill="#6E929D" d="M53.748 170.579c1.453.513 3.073.376 4.586.427a.21.21 0 0 0 .166-.096.208.208 0 0 0 .022-.19.045.045 0 0 0 .017-.036.049.049 0 0 0-.017-.037 9.17 9.17 0 0 0-3.757-2.893c-.855-.342-2.193-.338-2.539.756-.346 1.094.676 1.783 1.522 2.069Zm-.855-1.171c-.885-1.688 1.346-1.394 1.98-1.116.406.187.798.403 1.175.646a26.825 26.825 0 0 1 2.23 1.641c-.743-.068-1.483-.077-2.226-.115-.88-.043-2.676-.116-3.155-1.048l-.004-.008Z"/>
  <path fill="#004359" d="m60.69 166.955-18.889-3.42s6.078-32.207 5.984-32.963c-.145-.966-9.382-46.885-9.382-46.885l15.576.65s11.045 42.7 11.365 46.79c.526 6.608-4.655 35.828-4.655 35.828Z"/>
  <path fill="#000" d="m60.69 166.955-18.889-3.42s6.078-32.207 5.984-32.963c-.145-.966-9.382-46.885-9.382-46.885l15.576.65s11.045 42.7 11.365 46.79c.526 6.608-4.655 35.828-4.655 35.828Z" opacity=".3"/>
  <path fill="#6E929D" d="M59.959 163.044c-3.223-.8-14.982-2.715-16.281-2.715-.03 0-.039.047 0 .056 1.235.427 11.348 2.214 16.28 2.74a.041.041 0 0 0 .022-.016.042.042 0 0 0 .008-.025.042.042 0 0 0-.03-.04ZM41.78 87.333c.329 1.132.607 2.278.906 3.42.3 1.14.551 2.29.855 3.418.573 2.262 1.111 4.531 1.654 6.797a689.28 689.28 0 0 1 3.137 13.776c.502 2.279.995 4.559 1.48 6.839.487 2.286 1.004 4.569 1.427 6.868.222 1.08.291 2.185.205 3.283a32.897 32.897 0 0 1-.598 3.338c-.476 2.303-.95 4.608-1.42 6.916-.951 4.659-1.927 9.311-2.927 13.956-.124.568-.261 1.132-.394 1.71 0 .034-.064.021-.06 0 .817-4.63 1.796-9.237 2.723-13.845.462-2.28.925-4.559 1.39-6.839.243-1.192.495-2.381.73-3.573.25-1.122.341-2.273.27-3.42a30.212 30.212 0 0 0-.599-3.364 421.88 421.88 0 0 0-.71-3.389c-.478-2.28-.967-4.559-1.465-6.839-.995-4.579-2.02-9.151-3.078-13.716a3243.596 3243.596 0 0 0-3.184-13.618c-.133-.56-.26-1.12-.38-1.684a.026.026 0 0 1 .02-.043c.007 0 .013.004.018.009Z"/>
  <path fill="#6E929D" d="M38.386 83.695s5.484 27.245 8.061 40.204l6.28-39.61-14.341-.594Z"/>
  <path fill="#F7A9A0" d="M52.384 184.317c-.91.248-26.406-1.283-27.355-1.958-.36-.248-.35-3.979-.214-8.485v-.141c.026-.927 1.197-16.464 1.197-16.464l16.67.953-1.407 16.315v.278s9.498 4.954 10.447 5.804c.949.851 1.569 3.454.662 3.698Z"/>
  <path fill="#fff" d="M52.384 184.317c-.91.243-26.406-1.283-27.355-1.958-.36-.252-.35-3.979-.214-8.484v-.141c0-.176.073-1.146.141-2.138l16.499.855-.18 2.073v.278s9.498 4.95 10.447 5.8c.949.851 1.569 3.471.662 3.715Z"/>
  <path fill="#004359" d="M52.637 184.419c-.924.253-26.928-1.239-27.873-1.923-.363-.257-.368-4.052-.24-8.643l16.76.915s9.694 5.022 10.665 5.881c.97.86 1.615 3.522.688 3.77Z"/>
  <path fill="#6E929D" d="M52.325 183.359c-4.352-.355-21.932-1.385-26.262-1.41-.034 0-.038.025 0 .03 4.304.448 21.893 1.333 26.257 1.453.094 0 .094-.064.005-.073Zm-1.997-3.74a3.521 3.521 0 0 0-2.667.915 3.386 3.386 0 0 0-1.124 2.27c0 .025.047.03.052 0a4.04 4.04 0 0 1 3.719-3.133.033.033 0 0 0 .016-.005.033.033 0 0 0 .011-.014.028.028 0 0 0 .002-.017.03.03 0 0 0-.009-.016Zm-7.377-4.338c-1.744-.124-3.8.372-4.967 1.735-.047.056.03.12.086.094a24.198 24.198 0 0 1 4.898-1.615.113.113 0 0 0 .073-.038.112.112 0 0 0 .02-.036.105.105 0 0 0-.032-.115.103.103 0 0 0-.036-.02c-.014-.005-.028-.006-.042-.005Zm1.316.619c-1.743-.128-3.8.372-4.966 1.736-.047.055.03.12.081.094a24.28 24.28 0 0 1 4.903-1.594.12.12 0 0 0 .109-.127.116.116 0 0 0-.04-.08.117.117 0 0 0-.087-.029Zm1.313.599c-1.74-.124-3.8.376-4.963 1.74-.047.055.03.115.082.094a24.038 24.038 0 0 1 4.902-1.616.114.114 0 0 0 .062-.044.112.112 0 0 0-.014-.143.113.113 0 0 0-.07-.031Zm1.316.603c-1.74-.124-3.8.376-4.962 1.739-.047.052.03.116.081.094a24.126 24.126 0 0 1 4.898-1.615.113.113 0 0 0 .063-.043.112.112 0 0 0-.012-.142.106.106 0 0 0-.068-.033Z"/>
  <path fill="#fff" d="M27.41 177.875c-1.958-.107-2.137 2.937-.167 3.044 1.97.106 2.129-2.937.167-3.044Z"/>
  <path fill="#6E929D" d="M45.101 170.75c-.855-.782-1.992-.128-2.565.599a9.162 9.162 0 0 0-1.859 4.359.046.046 0 0 0 0 .022.04.04 0 0 0 .011.018.045.045 0 0 0 .019.011.052.052 0 0 0 .021.001.216.216 0 0 0 .114.158c.03.015.063.024.096.025a.235.235 0 0 0 .098-.021c1.282-.791 2.77-1.47 3.779-2.633.59-.667 1.081-1.799.286-2.539Zm-2.35 3.586c-.63.402-1.283.77-1.881 1.197.363-.855.688-1.71 1.132-2.526.203-.397.433-.78.688-1.146.428-.555 2.206-1.914 2.27 0 .056 1.052-1.466 1.992-2.21 2.475Z"/>
  <path fill="#6E929D" d="M36.309 176.136c1.504.32 3.094-.022 4.603-.167a.216.216 0 0 0 .172-.216.212.212 0 0 0-.027-.096.04.04 0 0 0 .015-.016.039.039 0 0 0 .006-.02.04.04 0 0 0-.006-.021 9.192 9.192 0 0 0-4.114-2.401c-.906-.231-2.218-.06-2.423 1.073-.205 1.133.889 1.654 1.774 1.864Zm-.996-1.052c-1.094-1.564 1.158-1.556 1.82-1.359a9.67 9.67 0 0 1 1.249.487c.83.405 1.64.853 2.423 1.342-.743.026-1.479.116-2.222.167-.885.043-2.667.201-3.27-.658v.021Z"/>
  <path fill="#004359" d="M53.962 84.323s-.428 7.438-2.356 13.25a24.03 24.03 0 0 1-.504 1.411s-.675-.034-3.458 1.518l-5.223 71.317-18.38-.958s4.506-37.716 4.583-40.14c.123-3.898 3.363-30.194 3.167-30.869-2-6.912 2.175-16.37 2.175-16.37l19.996.841Z"/>
  <path fill="#000" d="M53.962 84.323s-.428 7.438-2.356 13.25a24.03 24.03 0 0 1-.504 1.411s-.675-.034-3.458 1.518l-5.223 71.317-18.38-.958s4.506-37.716 4.583-40.14c.123-3.898 3.363-30.194 3.167-30.869-2-6.912 2.175-16.37 2.175-16.37l19.996.841Z" opacity=".3"/>
  <path fill="#6E929D" d="M41.93 168.391c-5.164-.526-15.191-1.022-16.486-.877-.026 0-.03.052 0 .056 1.282.282 13.446 1.022 16.485.906a.042.042 0 0 0 .03-.012.043.043 0 0 0 0-.061.042.042 0 0 0-.03-.012Zm2.043-18.953c-.35 4.608-.68 9.22-1.065 13.828a.052.052 0 0 1-.015.036.054.054 0 0 1-.036.015.054.054 0 0 1-.036-.015.052.052 0 0 1-.015-.036c.389-8.224.944-16.448 1.509-24.663.564-8.215 1.184-16.345 1.855-24.513.38-4.608.966-8.84 1.427-13.439 0-.033.013-.064.036-.087a.122.122 0 0 1 .176 0 .122.122 0 0 1 .036.087c-.538 8.216-1.406 16.05-2.017 24.266M29.474 149.43c.607-5.352 1.227-10.702 1.86-16.05.632-5.349 1.253-10.699 1.863-16.05.312-2.676.616-5.352.936-8.023.163-1.337.324-2.674.483-4.014a35.58 35.58 0 0 0 .428-3.975c0-1.457-.548-2.774-.83-4.18a15.937 15.937 0 0 1-.248-4.056c.154-2.804.736-5.185 1.71-8.156.051-.145.15-.154.107 0a40.178 40.178 0 0 0-1.556 7.574 16.353 16.353 0 0 0 .107 3.847c.188 1.227.65 2.377.885 3.586.235 1.21.026 2.522-.124 3.774-.158 1.338-.304 2.676-.457 4.014-.295 2.62-.607 5.24-.91 7.865-1.24 10.643-2.463 21.294-3.74 31.933-.719 5.984-1.364 11.994-2.198 17.952 0 .043-.077.043-.073 0 .483-5.347 1.15-10.707 1.757-16.041Zm6.779-55.835c.312-.107 1.659-.38 1.983-.509a7.557 7.557 0 0 0 1.749-.957 3.98 3.98 0 0 0 1.175-1.565c.15-.325.885-2.077.932-2.081a.038.038 0 0 1 .021-.007c.008 0 .015.002.022.007-.031.335-.11.665-.235.978-.12.377-.236.757-.368 1.129a3.872 3.872 0 0 1-1.184 1.808 6.115 6.115 0 0 1-1.932 1.03 6.597 6.597 0 0 1-1.107.256 2.899 2.899 0 0 1-1.052 0c-.072.005-.05-.072-.004-.09Zm13.999 2.799c.068-.64.145-1.282.23-1.923.188-1.458.402-2.92.718-4.356.026-.115.184-.064.167.043-.145 1.133-.32 2.266-.474 3.42-.154 1.154-.338 2.256-.406 3.385 0 .342-.022.923.393 1.034.56.15.855-.581 1.009-.979a18.91 18.91 0 0 0 .833-3.069c.235-1.183.38-2.389.547-3.586 0-.042.077-.034.077 0-.094 2.39-.23 4.882-1.214 7.096a1.329 1.329 0 0 1-1.026.901h-.025a.07.07 0 0 1 0 .043c0 .064-.034.128-.047.197a1.343 1.343 0 0 1-.043.167c-.017.055-.047.23-.081.342a.09.09 0 0 1-.099.061.09.09 0 0 1-.077-.087.069.069 0 0 1-.042-.073c.017-.232.078-.458.18-.667a.854.854 0 0 1-.595-.547 3.048 3.048 0 0 1-.026-1.402Z"/>
  <path fill="#6E929D" d="M51.884 98.591a33.773 33.773 0 0 0-5.347 2.535.06.06 0 0 0-.024.034.06.06 0 0 0 .003.042.061.061 0 0 0 .03.029.067.067 0 0 0 .043.002c1.808-.787 3.65-1.539 5.415-2.428a.122.122 0 0 0-.12-.214Zm-17.909-15.11 19.987.855.521-5.808s1.812-2.202 1.812-4.75c0-2.7-4.83-10.027-5.227-10.441-1.594-1.672-4.33-1.928-5.736-.855-7.502 5.706-11.357 21-11.357 21Z"/>
  <path fill="#6E929D" d="m33.975 83.481 19.987.855.521-5.808s1.812-2.202 1.812-4.75c0-2.7-4.83-10.027-5.227-10.441-1.594-1.672-4.33-1.928-5.736-.855-7.502 5.706-11.357 21-11.357 21Z"/>
  <path fill="#F7A9A0" d="M41.947 66.154c-7.895-1.847-19.188-5.236-20.09-8.122-.854-2.658-.21-10.578.855-18.105.214-1.496 11.755.773 11.366 2.342-.761 3.094-2.317 10.365-1.97 12.177.149.778 7.364 4.886 11.967 8.48 4.04 3.16.89 3.937-2.128 3.228Z"/>
  <path fill="#F7A9A0" d="M22.75 40.444c-.098-1.283-.076-7.237.308-8.874.385-1.637 1.83-6.258 3.112-6.09 1.282.166.966 1.555.966 1.555s.92-1.86 2.193-1.573c1.274.287.714 2.428.714 2.428s1.085-1.834 2.338-1.462c1.252.372.325 2.436.325 2.436s.91-1.71 1.812-.978c1.081.893-.958 3.885-1.248 5.719-.064.427-.727 8.548-.727 8.548l-9.792-1.71Z"/>
  <path fill="#6E929D" d="M32.782 28.672c-1.5 2.201-1.77 3.42-1.859 6.044 0 .051-.077.064-.081 0-.15-2.565-.026-4.159 1.834-6.134.094-.068.183 0 .106.09Zm-2.615-.953c-1.355 2.424-1.663 3.749-1.958 6.484 0 .039-.068.039-.068 0 .064-2.714.222-4.274 1.893-6.535.073-.099.192-.06.133.051Zm-3.044-.547c-1.14 2.445-1.543 3.88-1.483 6.574a.05.05 0 0 1-.098 0c-.325-2.74.158-4.54 1.504-6.608.094-.133.15-.12.077.034Z"/>
  <path fill="#F7A9A0" d="M32.517 43.829s2.356-2.368 3.16-3.633c.803-1.265 2.064-7.1.82-7.442-1.607-.427-2.992 2.779-3.47 4.445 0 0-3.711-1.03-5.211 1.069-1.5 2.099 4.701 5.56 4.701 5.56Z"/>
  <path fill="#6E929D" d="M36.014 32.775c-1.757.654-2.236 2.881-2.817 4.463a.154.154 0 0 1-.244.077c-1.581-.33-3.915-.33-5.154.855a.037.037 0 0 1-.012.011.038.038 0 0 1-.047-.004.038.038 0 0 1 .003-.059c1.158-1.44 3.445-1.628 5.16-1.158.568-1.629 1.149-3.847 3.107-4.193.008-.009.017.008.004.008Zm-3.979 31.374 4.449-7.502s5.471 3.612 8.34 6.36c2.867 2.749 2.786 4.754-2.89 3.553-5.676-1.201-9.9-2.411-9.9-2.411Z"/>
  <path fill="#455A64" d="M37.467 57.81a65.29 65.29 0 0 1-1.637 3.171c-.282.513-.556 1.035-.855 1.54-.3.504-.641 1.034-.94 1.56 0 .034-.081 0-.064-.03.273-.518.508-1.056.778-1.578.269-.521.577-1.06.854-1.59A64.203 64.203 0 0 1 37.4 57.79c.038-.03.085-.009.068.021Z"/>
  <path fill="#004359" d="M56.3 73.787c0 2.543-1.813 4.75-1.813 4.75l-.521 5.804-19.987-.855a65.963 65.963 0 0 1 3.719-10.301c.389.042 3.206 2.026 6.993-.18 2.278-1.325 2.564-5.646 2.564-5.646l6.048-.577c1.42 2.406 2.997 5.458 2.997 7.005Z"/>
  <path fill="#000" d="M56.3 73.787c0 2.543-1.813 4.75-1.813 4.75l-.521 5.804-19.987-.855a65.963 65.963 0 0 1 3.719-10.301c.389.042 3.206 2.026 6.993-.18 2.278-1.325 2.564-5.646 2.564-5.646l6.048-.577c1.42 2.406 2.997 5.458 2.997 7.005Z" opacity=".3"/>
  <path fill="#004359" d="m47.242 67.355-2.278-4.63.368-.239 2.35 4.83-.44.038Z"/>
  <path fill="#000" d="m47.242 67.355-2.278-4.63.368-.239 2.35 4.83-.44.038Z" opacity=".3"/>
  <path fill="#004359" d="m52.735 66.833-2.445-4.107.539.205 2.333 3.864-.427.038Z"/>
  <path fill="#000" d="m52.735 66.833-2.445-4.107.539.205 2.333 3.864-.427.038Z" opacity=".3"/>
  <path fill="#004359" d="M48.136 68.038a.364.364 0 1 1-.728.009.364.364 0 0 1 .728-.008Zm5.24-.816a.338.338 0 0 1-.098.457.373.373 0 0 1-.486-.563.372.372 0 0 1 .584.106Z"/>
  <path fill="#6E929D" d="M33.98 83.481c1.666.073 3.333.159 4.996.244l4.997.257c1.662.098 3.33.166 4.992.235 1.663.068 3.33.12 5 .124-1.666.128-3.337.132-5.004.12-1.667-.014-3.338-.086-5.005-.159a130.117 130.117 0 0 1-4.997-.329c-1.663-.137-3.326-.29-4.98-.492Zm.542-1.906c1.637.064 3.27.145 4.907.227l4.903.243c1.632.094 3.265.159 4.902.218 1.637.06 3.27.111 4.907.12-1.633.128-3.274.137-4.915.128-1.642-.008-3.274-.077-4.911-.145-1.637-.069-3.27-.184-4.903-.316a124.49 124.49 0 0 1-4.89-.475Z"/>
  <path fill="#6E929D" d="M35.77 81.674c-.1.305-.18.616-.24.931a3.444 3.444 0 0 0-.063.47c0 .159 0 .317-.026.488-.147-.31-.19-.66-.124-.996a1.71 1.71 0 0 1 .453-.893Zm.436 0c-.1.305-.18.616-.24.931a3.46 3.46 0 0 0-.063.47c-.022.159 0 .317-.022.488a1.569 1.569 0 0 1-.128-.996 1.71 1.71 0 0 1 .453-.893Zm5.258.371c-.1.306-.182.617-.244.932-.03.154-.047.308-.064.466-.017.158 0 .316 0 .487a1.553 1.553 0 0 1-.124-.991c.05-.335.2-.646.432-.894Zm.436 0a7.9 7.9 0 0 0-.244.932c-.03.154-.047.308-.064.466-.017.158 0 .316-.022.487a1.552 1.552 0 0 1-.123-.991 1.67 1.67 0 0 1 .453-.894Zm5.535 2.265c.1-.305.181-.616.243-.931.03-.154.047-.308.065-.466.017-.158 0-.32.02-.487.15.308.194.656.125.991a1.671 1.671 0 0 1-.453.894Zm-.436 0c.1-.305.181-.616.243-.931.03-.154.047-.308.065-.466.017-.158 0-.32 0-.487.15.308.193.656.123.991-.05.335-.2.647-.431.894Zm4.787 0c.104-.303.185-.615.244-.931.03-.154.051-.31.064-.466 0-.158 0-.32.021-.487.15.308.193.656.124.991a1.672 1.672 0 0 1-.453.894Zm-.436 0c.1-.305.181-.616.244-.931.03-.154.047-.308.064-.466.017-.158 0-.32.021-.487.15.308.193.656.124.991a1.671 1.671 0 0 1-.453.894Zm-3.137-7.338c1.06.064 2.112.218 3.146.461.517.128 1.021.282 1.53.453.252.082.504.159.76.231.264.083.537.13.813.141.021 0 .025.043 0 .043a4.713 4.713 0 0 1-.774 0 5.382 5.382 0 0 1-.744-.128 41.13 41.13 0 0 1-1.564-.428c-1.056-.265-2.107-.53-3.176-.705-.047.043-.038-.068.009-.068Zm-2.531 1.214a19.61 19.61 0 0 1 2.6-.261c.427 0 .854 0 1.281.034.21 0 .428.03.624.051.197.022.454.086.684.103.022 0 .026.047 0 .047-.218 0-.427 0-.65.022h-.649l-1.304.02c-.855 0-1.735 0-2.607.056-.038-.004-.038-.068.021-.072Z"/>
  <path fill="#F7A9A0" d="M45.905 63.153c.175.385 2.62 2.616 4.445 2.163.594-.15-.073-3.42-.073-3.42v-.252l.086-3.543-4.497-1.765-.645-.223s.042.97.107 2.18v.368c0 .18 0 .367.025.551.026.184 0 .274.03.428.03.154.026.29.034.427.095 1.038.258 2.07.488 3.086Z"/>
  <path fill="#6E929D" d="M45.332 58.284a7.121 7.121 0 0 0 4.95 3.351l.085-3.543-4.497-1.765-.645-.222s.03.97.107 2.18Z"/>
  <path fill="#F7A9A0" d="M54.492 52.266c1.526 6.031-1.915 7.626-3.215 7.955-1.184.295-5.244 1.158-7.381-4.702-2.138-5.86.183-8.459 2.85-9.28 2.668-.82 6.224-.004 7.746 6.027Z"/>
  <path fill="#AD594E" d="M52.124 51.531h-.428a.722.722 0 0 1-.427-.073.222.222 0 0 1-.069-.265.555.555 0 0 1 .5-.256.82.82 0 0 1 .569.158.239.239 0 0 1 0 .394.24.24 0 0 1-.145.042Zm-4.198.923c.135-.055.266-.118.394-.188a.714.714 0 0 0 .359-.269.221.221 0 0 0-.065-.265.556.556 0 0 0-.564 0 .855.855 0 0 0-.427.402.24.24 0 0 0 .303.32Z"/>
  <path fill="#6E929D" d="M49.102 53.416s-.026.03 0 .047c.137.402.23.893-.098 1.141v.022c.423-.201.299-.847.098-1.21Z"/>
  <path fill="#6E929D" d="M48.606 53.1c-.671.154-.316 1.492.308 1.346.624-.145.26-1.474-.308-1.346Z"/>
  <path fill="#6E929D" d="M48.362 53.24c-.094.108-.175.27-.312.321-.136.052-.316-.047-.457-.154h-.022c.065.257.236.496.518.462.282-.034.38-.308.376-.581 0-.03-.06-.09-.103-.047Zm3.112-.632s.034 0 .039.03c.08.428.243.89.653.945v.025c-.474.039-.683-.572-.692-1Z"/>
  <path fill="#6E929D" d="M51.748 52.091c.662-.205 1.017 1.133.401 1.32-.615.189-.953-1.153-.401-1.32Z"/>
  <path fill="#6E929D" d="M52.051 52.104c.124.043.26.14.389.12.128-.022.218-.206.278-.368.077.252.064.543-.171.658-.235.116-.428-.073-.56-.312-.004-.021.013-.115.064-.098Zm-.573 2.838s.235.603.308.893c0 .03-.06.06-.158.09a1.437 1.437 0 0 1-1.48-.192c-.029 0 0-.06.035-.052a2.14 2.14 0 0 0 1.36.056c0-.086-.428-1.017-.394-1.03.233-.03.468-.03.701 0-.462-1.282-1.116-2.445-1.556-3.71a.043.043 0 0 1 .049-.051.04.04 0 0 1 .024.012 21.469 21.469 0 0 1 1.842 3.928c.056.15-.603.077-.73.056Z"/>
  <path fill="#6E929D" d="M51.572 55.822c-.105.28-.278.528-.504.723a.808.808 0 0 1-.427.166c-.355 0-.458-.282-.48-.56a1.912 1.912 0 0 1 .026-.427c.44.179.925.214 1.385.098Z"/>
  <path fill="#FF9BBC" d="M51.068 56.545a.808.808 0 0 1-.427.166c-.355 0-.458-.282-.48-.56a.812.812 0 0 1 .907.394Z"/>
  <path fill="#AD594E" d="M44.212 55.331c1-.133.795-2.248.795-2.248s2.009-.428 2.064-3.42a4.513 4.513 0 0 1-.389 2.565s3.458-1.111 4.326-4.381c0 0-.278 1.628-.722 2.282a4.223 4.223 0 0 0 1.868-2.077s.974 1.577 1.551 1.949c0 0-1.44-6.155-7.031-4.3 0 0-3.535.987-4.232 4.1-.696 3.11 1.77 5.53 1.77 5.53Z"/>
  <path fill="#F7A9A0" d="M45.255 55.288s-1.65-1.71-2.445-1.081c-.795.628.667 3.236 1.752 3.45a1.052 1.052 0 0 0 1.283-.783l-.59-1.586Z"/>
  <path fill="#6E929D" d="M43.267 54.946v.03a2.64 2.64 0 0 1 1.625 1.42.581.581 0 0 0-.88 0s0 .042.025.033a.659.659 0 0 1 .74.112c.159.156.302.327.427.513.042.06.154 0 .115-.065-.141-.961-1.056-2.111-2.052-2.043Z"/>
</svg>
